# 3ds Max Wavefront OBJ Exporter v0.97b - (c)2007 guruware
# File Created: 14.08.2016 13:19:04

#
# object Building_4_LOD_2
#

v  3.9131 4.5442 -3.9131
v  3.9131 4.5442 3.9131
v  3.9131 -0.2255 3.9131
v  3.9131 -0.2255 -3.9131
v  -3.9131 4.5442 -3.9131
v  -3.9131 -0.2255 -3.9131
v  -3.9131 4.5442 3.9131
v  -3.9131 -0.2255 3.9131
v  3.5611 4.5442 3.5611
v  -3.5611 4.5442 3.5611
v  3.5611 4.5442 -3.5611
v  -3.5611 4.5442 -3.5611
v  3.5611 5.1575 3.5611
v  -3.5611 5.1575 3.5611
v  3.5611 5.1575 -3.5611
v  -3.5611 5.1575 -3.5611
v  3.3179 5.1575 3.3179
v  -3.3179 5.1575 3.3179
v  3.3179 5.1575 -3.3179
v  -3.3179 5.1575 -3.3179
v  3.3179 5.7497 3.3179
v  -3.3179 5.7497 3.3179
v  3.3179 5.7497 -3.3179
v  -3.3179 5.7497 -3.3179
v  3.0525 5.7497 3.0525
v  -3.0525 5.7497 3.0525
v  3.0525 5.7497 -3.0525
v  -3.0525 5.7497 -3.0525
v  -3.0525 13.0948 3.0525
v  -3.0525 10.0855 3.0525
v  3.0525 10.0855 3.0525
v  3.0525 13.0948 3.0430
v  -3.0525 10.0855 -3.0525
v  3.0525 10.0855 -3.0525
v  -0.3804 6.9099 3.0525
v  -0.3804 6.2293 3.0525
v  -0.7632 0.2496 3.9131
v  -0.7632 2.7560 3.9131
v  3.0525 14.8122 -0.1199
v  3.0525 15.2955 -0.1199
v  3.0525 18.4001 3.0525
v  0.0381 6.2293 3.0525
v  -3.0525 18.4001 3.0525
v  -3.0525 18.4001 -3.0525
v  -3.0525 15.4481 -0.3264
v  -3.0525 15.4481 -0.0586
v  -3.0525 13.0948 -3.0525
v  -3.0525 14.9648 -0.3264
v  -3.0525 14.9648 -0.0586
v  -0.2815 15.4463 -3.0525
v  -0.2815 14.1680 -3.0525
v  0.2815 15.4463 -3.0525
v  3.0525 18.4001 -3.0525
v  3.0525 13.0925 -3.0525
v  0.2815 14.1680 -3.0525
v  0.0381 10.9942 -3.0525
v  0.0381 11.6749 -3.0525
v  -0.3804 11.6749 -3.0525
v  -0.3804 10.9942 -3.0525
v  3.0525 8.2444 0.2407
v  3.0525 9.5227 0.2407
v  3.0525 8.2444 -0.3223
v  3.0525 9.5227 -0.3223
v  -3.0525 8.2444 -0.3223
v  -3.0525 9.5227 -0.3223
v  -3.0525 8.2444 0.2407
v  -3.0525 10.6255 -1.8268
v  -3.0525 11.1088 -1.8268
v  -3.0525 10.6255 -1.5589
v  -3.0525 11.1088 -1.5589
v  0.0381 6.9099 3.0525
v  0.2815 15.4463 3.0525
v  0.2815 14.1680 3.0525
v  -0.2815 14.1680 3.0525
v  -0.2815 15.4463 3.0525
v  3.0525 14.8122 -0.3877
v  3.0525 15.2955 -0.3877
v  0.7632 2.7560 3.9131
v  0.7632 0.2496 3.9131
v  -3.0525 9.5227 0.2407
v  2.5465 -0.2255 2.5465
v  2.5465 4.0382 2.5465
v  2.5465 4.0382 -2.5465
v  2.5465 -0.2255 -2.5465
v  -2.5465 4.0382 -2.5465
v  -2.5465 -0.2255 -2.5465
v  -2.5465 4.0382 2.5465
v  -2.5465 -0.2255 2.5465
v  2.5475 10.0849 2.5473
v  -2.5465 10.0855 2.5465
v  -2.5459 13.0948 2.5457
v  2.5455 13.0947 2.5378
v  2.5465 10.0855 -2.5465
v  -2.5465 10.0855 -2.5465
v  -0.3804 6.9099 2.5465
v  -0.3804 6.2293 2.5465
v  -0.7632 2.7560 2.5465
v  -0.7632 0.2496 2.5465
v  2.5465 19.1335 2.5465
v  2.5465 15.2955 -0.1199
v  2.5465 14.8122 -0.1199
v  0.0381 6.2293 2.5465
v  -2.5465 15.4481 -0.3264
v  -2.5465 19.1335 -2.5465
v  -2.5465 19.1335 2.5465
v  -2.5465 15.4481 -0.0586
v  -2.5465 14.9648 -0.3264
v  -2.5465 13.0948 -2.5465
v  -2.5465 14.9648 -0.0586
v  -0.2815 15.4463 -2.5465
v  -0.2815 14.1680 -2.5465
v  0.2815 15.4463 -2.5465
v  2.5465 19.1335 -2.5465
v  2.5465 13.0925 -2.5465
v  0.2815 14.1680 -2.5465
v  0.0381 11.6749 -2.5465
v  0.0381 10.9942 -2.5465
v  -0.3804 11.6749 -2.5465
v  -0.3804 10.9942 -2.5465
v  2.5465 9.5227 0.2407
v  2.5465 8.2444 0.2407
v  2.5465 8.2444 -0.3223
v  2.5465 9.5227 -0.3223
v  -2.5465 8.2444 -0.3223
v  -2.5465 9.5227 -0.3223
v  -2.5465 8.2444 0.2407
v  -2.5465 10.6255 -1.8268
v  -2.5465 11.1088 -1.8268
v  -2.5465 10.6255 -1.5589
v  -2.5465 11.1088 -1.5589
v  0.0381 6.9099 2.5465
v  0.2811 15.4466 2.5465
v  0.2804 14.1693 2.5465
v  -0.2815 14.1680 2.5465
v  -0.2815 15.4463 2.5465
v  2.5465 14.8122 -0.3877
v  2.5465 15.2955 -0.3877
v  0.7632 0.2496 2.5465
v  0.7632 2.7560 2.5465
v  -2.5465 9.5227 0.2407
v  -3.2122 18.4001 3.2122
v  3.2122 18.4001 3.2122
v  3.2122 18.6668 3.2122
v  -3.2122 18.6668 3.2122
v  3.2122 18.4001 -3.2122
v  3.2122 18.6668 -3.2122
v  -3.2122 18.4001 -3.2122
v  -3.2122 18.6668 -3.2122
v  -3.3884 18.6668 3.3884
v  3.3884 18.6668 3.3884
v  3.3884 19.1335 3.3884
v  -3.3884 19.1335 3.3884
v  3.3884 18.6668 -3.3884
v  3.3884 19.1335 -3.3884
v  -3.3884 18.6668 -3.3884
v  -3.3884 19.1335 -3.3884
v  2.5834 17.9557 2.6395
v  -1.8520 17.9557 -1.2166
v  -2.6410 17.9557 -1.2166
v  -2.6410 17.9557 2.6395
v  2.5834 17.9557 -2.5858
v  -1.8520 17.9557 -2.2398
v  -1.8520 17.8407 -1.2166
v  -2.6410 17.8407 -1.2166
v  -2.6410 17.9557 -2.5858
v  -1.8520 17.8407 -2.2398
v  -2.6410 17.9557 -2.2398
v  -2.6410 17.8407 -2.2398
# 168 vertices

vn 1.0000 0.0000 -0.0000
vn 0.0000 0.0000 -1.0000
vn -1.0000 0.0000 -0.0000
vn 0.0000 1.0000 -0.0000
vn 0.0000 0.0000 1.0000
vn 0.0008 0.0016 1.0000
vn 1.0000 -0.0000 -0.0000
vn -1.0000 -0.0000 -0.0000
vn -1.0000 0.0000 0.0000
vn 0.0022 -0.0014 1.0000
vn 0.0014 -0.0044 1.0000
vn 0.0000 -0.0000 1.0000
vn 1.0000 -0.0000 0.0000
vn -1.0000 -0.0000 0.0000
vn -0.0000 -0.0000 1.0000
vn -0.0007 -0.0017 -1.0000
vn -0.0000 0.0000 1.0000
vn -1.0000 0.0002 -0.0002
vn 1.0000 0.0000 0.0000
vn 1.0000 0.0001 -0.0001
vn -1.0000 0.0001 0.0003
vn 1.0000 -0.0001 -0.0001
vn 0.0001 0.0001 -1.0000
vn -0.0026 0.0012 -1.0000
vn -0.0014 0.0044 -1.0000
vn 0.0002 0.0001 -1.0000
vn -1.0000 0.0003 -0.0002
vn 1.0000 -0.0002 -0.0000
vn 0.0000 -0.0000 -1.0000
vn -1.0000 0.0009 0.0002
vn -1.0000 -0.0003 0.0000
vn 0.0000 -1.0000 -0.0000
# 32 vertex normals

vt 0.3835 0.9039 0.0000
vt 0.1210 0.9039 0.0000
vt 0.1210 0.7440 0.0000
vt 0.3835 0.7440 0.0000
vt 0.3459 0.9586 0.0000
vt 0.0795 0.9586 0.0000
vt 0.0795 0.7981 0.0000
vt 0.3459 0.7981 0.0000
vt 0.3307 0.7330 0.0000
vt 0.0663 0.7330 0.0000
vt 0.0663 0.5718 0.0000
vt 0.3307 0.5718 0.0000
vt 0.4846 0.7432 0.0000
vt 0.2455 0.7432 0.0000
vt 0.2337 0.7316 0.0000
vt 0.4964 0.7316 0.0000
vt 0.3719 0.9042 0.0000
vt 0.1334 0.9042 0.0000
vt 0.1216 0.8921 0.0000
vt 0.3837 0.8921 0.0000
vt 0.3340 0.9704 0.0000
vt 0.0912 0.9704 0.0000
vt 0.0792 0.9586 0.0000
vt 0.3460 0.9586 0.0000
vt 0.3187 0.7426 0.0000
vt 0.0790 0.7426 0.0000
vt 0.0671 0.7307 0.0000
vt 0.3306 0.7307 0.0000
vt 0.4152 0.5420 0.0000
vt 0.1649 0.5420 0.0000
vt 0.1649 0.5205 0.0000
vt 0.4152 0.5205 0.0000
vt 0.4432 0.5878 0.0000
vt 0.1930 0.5878 0.0000
vt 0.1930 0.5662 0.0000
vt 0.4432 0.5662 0.0000
vt 0.2513 0.5869 0.0000
vt 0.0011 0.5869 0.0000
vt 0.0011 0.5653 0.0000
vt 0.2513 0.5653 0.0000
vt 0.0398 0.5227 0.0000
vt 0.2901 0.5227 0.0000
vt 0.2901 0.5442 0.0000
vt 0.0398 0.5442 0.0000
vt 0.4068 0.5417 0.0000
vt 0.1750 0.5417 0.0000
vt 0.1665 0.5334 0.0000
vt 0.4153 0.5334 0.0000
vt 0.4357 0.5851 0.0000
vt 0.2013 0.5851 0.0000
vt 0.1927 0.5785 0.0000
vt 0.4443 0.5785 0.0000
vt 0.2420 0.5854 0.0000
vt 0.0117 0.5854 0.0000
vt 0.0033 0.5771 0.0000
vt 0.2504 0.5771 0.0000
vt 0.0486 0.5336 0.0000
vt 0.2817 0.5336 0.0000
vt 0.2902 0.5418 0.0000
vt 0.0400 0.5418 0.0000
vt 0.4774 0.7824 0.0000
vt 0.2110 0.7824 0.0000
vt 0.2110 0.7586 0.0000
vt 0.4774 0.7586 0.0000
vt 0.4272 0.6612 0.0000
vt 0.1995 0.6612 0.0000
vt 0.1995 0.6408 0.0000
vt 0.4272 0.6408 0.0000
vt 0.4850 0.8300 0.0000
vt 0.2157 0.8300 0.0000
vt 0.2157 0.8089 0.0000
vt 0.4850 0.8089 0.0000
vt 0.2317 0.6882 0.0000
vt 0.4465 0.6882 0.0000
vt 0.4465 0.7073 0.0000
vt 0.2317 0.7073 0.0000
vt 0.4660 0.7805 0.0000
vt 0.2212 0.7805 0.0000
vt 0.2105 0.7716 0.0000
vt 0.4767 0.7716 0.0000
vt 0.4180 0.6539 0.0000
vt 0.2087 0.6539 0.0000
vt 0.1996 0.6443 0.0000
vt 0.4271 0.6443 0.0000
vt 0.4744 0.8331 0.0000
vt 0.2264 0.8331 0.0000
vt 0.2156 0.8241 0.0000
vt 0.4852 0.8241 0.0000
vt 0.2397 0.6977 0.0000
vt 0.4385 0.6977 0.0000
vt 0.4472 0.7068 0.0000
vt 0.2311 0.7068 0.0000
vt 0.0582 0.7719 0.0000
vt 0.0582 0.6650 0.0000
vt 0.2751 0.6650 0.0000
vt 0.2751 0.7719 0.0000
vt 0.4925 0.6648 0.0000
vt 0.2753 0.6648 0.0000
vt 0.2753 0.5107 0.0000
vt 0.4925 0.5107 0.0000
vt 0.1531 0.5523 0.0000
vt 0.0582 0.5110 0.0000
vt 0.1531 0.5281 0.0000
vt 0.3386 0.5868 0.0000
vt 0.3386 0.6709 0.0000
vt 0.2330 0.7309 0.0000
vt 0.2330 0.5709 0.0000
vt 0.1215 0.8326 0.0000
vt 0.1215 0.8497 0.0000
vt 0.0093 0.9595 0.0000
vt 0.0096 0.7718 0.0000
vt 0.2751 0.5110 0.0000
vt 0.1680 0.5281 0.0000
vt 0.4918 0.9603 0.0000
vt 0.2751 0.9603 0.0000
vt 0.3719 0.8555 0.0000
vt 0.3814 0.8555 0.0000
vt 0.2751 0.7720 0.0000
vt 0.3719 0.8384 0.0000
vt 0.4918 0.7720 0.0000
vt 0.3814 0.8384 0.0000
vt 0.4925 0.7717 0.0000
vt 0.4925 0.9601 0.0000
vt 0.3939 0.8552 0.0000
vt 0.3939 0.8098 0.0000
vt 0.3739 0.8552 0.0000
vt 0.2753 0.9601 0.0000
vt 0.2753 0.7716 0.0000
vt 0.3739 0.8098 0.0000
vt 0.3826 0.6971 0.0000
vt 0.3826 0.7212 0.0000
vt 0.3975 0.7212 0.0000
vt 0.3975 0.6971 0.0000
vt 0.0093 0.5120 0.0000
vt 0.1087 0.6003 0.0000
vt 0.1087 0.6455 0.0000
vt 0.0093 0.6654 0.0000
vt 0.2252 0.5120 0.0000
vt 0.1286 0.6003 0.0000
vt 0.2252 0.6654 0.0000
vt 0.1286 0.6455 0.0000
vt 0.2751 0.6651 0.0000
vt 0.2751 0.5112 0.0000
vt 0.3720 0.5998 0.0000
vt 0.3720 0.6451 0.0000
vt 0.4918 0.5112 0.0000
vt 0.3920 0.5998 0.0000
vt 0.3186 0.6843 0.0000
vt 0.3186 0.7015 0.0000
vt 0.4918 0.6651 0.0000
vt 0.3281 0.6843 0.0000
vt 0.3281 0.7015 0.0000
vt 0.1680 0.5523 0.0000
vt 0.2751 0.9604 0.0000
vt 0.1767 0.8554 0.0000
vt 0.1767 0.8100 0.0000
vt 0.1567 0.8100 0.0000
vt 0.1567 0.8554 0.0000
vt 0.0582 0.9604 0.0000
vt 0.2252 0.7717 0.0000
vt 0.1310 0.8326 0.0000
vt 0.2252 0.9595 0.0000
vt 0.1310 0.8497 0.0000
vt 0.4955 0.7309 0.0000
vt 0.3898 0.6709 0.0000
vt 0.3898 0.5868 0.0000
vt 0.4955 0.5709 0.0000
vt 0.3920 0.6451 0.0000
vt 0.0593 0.9745 0.0000
vt 0.0593 0.7967 0.0000
vt 0.2717 0.7967 0.0000
vt 0.2717 0.9745 0.0000
vt 0.0051 0.9741 0.0000
vt 0.0051 0.7967 0.0000
vt 0.2170 0.7967 0.0000
vt 0.2170 0.9741 0.0000
vt 0.2171 0.9746 0.0000
vt 0.2171 0.7967 0.0000
vt 0.4296 0.7967 0.0000
vt 0.4296 0.9746 0.0000
vt 0.2845 0.5452 0.0000
vt 0.4963 0.5452 0.0000
vt 0.4963 0.6703 0.0000
vt 0.2846 0.6703 0.0000
vt 0.0051 0.5451 0.0000
vt 0.2170 0.5451 0.0000
vt 0.2845 0.7966 0.0000
vt 0.3746 0.6772 0.0000
vt 0.3746 0.7055 0.0000
vt 0.3587 0.8499 0.0000
vt 0.3587 0.9542 0.0000
vt 0.2845 0.9739 0.0000
vt 0.2716 0.9219 0.0000
vt 0.1604 0.7618 0.0000
vt 0.1604 0.7417 0.0000
vt 0.2713 0.6701 0.0000
vt 0.3920 0.7055 0.0000
vt 0.4963 0.7966 0.0000
vt 0.3370 0.7681 0.0000
vt 0.4296 0.9219 0.0000
vt 0.2171 0.9219 0.0000
vt 0.3258 0.7681 0.0000
vt 0.3370 0.7480 0.0000
vt 0.4296 0.6700 0.0000
vt 0.3258 0.7480 0.0000
vt 0.2172 0.6699 0.0000
vt 0.0994 0.7682 0.0000
vt 0.0051 0.9216 0.0000
vt 0.0051 0.6703 0.0000
vt 0.0994 0.7150 0.0000
vt 0.1228 0.7682 0.0000
vt 0.2170 0.9216 0.0000
vt 0.2170 0.6702 0.0000
vt 0.1228 0.7150 0.0000
vt 0.1127 0.6113 0.0000
vt 0.1127 0.5829 0.0000
vt 0.0953 0.6113 0.0000
vt 0.0953 0.5829 0.0000
vt 0.1554 0.5680 0.0000
vt 0.1554 0.6213 0.0000
vt 0.0592 0.5446 0.0000
vt 0.1789 0.6213 0.0000
vt 0.1789 0.5680 0.0000
vt 0.2717 0.5445 0.0000
vt 0.3099 0.6212 0.0000
vt 0.2171 0.5444 0.0000
vt 0.3099 0.5679 0.0000
vt 0.3334 0.6212 0.0000
vt 0.3996 0.5669 0.0000
vt 0.4296 0.5444 0.0000
vt 0.3996 0.5871 0.0000
vt 0.3884 0.5669 0.0000
vt 0.3884 0.5871 0.0000
vt 0.3920 0.6772 0.0000
vt 0.3788 0.7681 0.0000
vt 0.2846 0.9214 0.0000
vt 0.3788 0.7150 0.0000
vt 0.4022 0.7150 0.0000
vt 0.4022 0.7681 0.0000
vt 0.4963 0.9214 0.0000
vt 0.1493 0.7417 0.0000
vt 0.0592 0.6700 0.0000
vt 0.1493 0.7618 0.0000
vt 0.0592 0.9219 0.0000
vt 0.4222 0.9542 0.0000
vt 0.4222 0.8499 0.0000
vt 0.4963 0.9739 0.0000
vt 0.3334 0.5679 0.0000
vt 0.0497 0.9211 0.0000
vt 0.2773 0.9211 0.0000
vt 0.2773 0.9306 0.0000
vt 0.0497 0.9306 0.0000
vt 0.0480 0.7908 0.0000
vt 0.2737 0.7908 0.0000
vt 0.2737 0.8001 0.0000
vt 0.0480 0.8001 0.0000
vt 0.0459 0.7322 0.0000
vt 0.2731 0.7322 0.0000
vt 0.2731 0.7417 0.0000
vt 0.0459 0.7417 0.0000
vt 0.0576 0.8715 0.0000
vt 0.2852 0.8715 0.0000
vt 0.2852 0.8810 0.0000
vt 0.0576 0.8810 0.0000
vt 0.0435 0.9368 0.0000
vt 0.2835 0.9368 0.0000
vt 0.2835 0.9534 0.0000
vt 0.0435 0.9534 0.0000
vt 0.0418 0.8063 0.0000
vt 0.2799 0.8063 0.0000
vt 0.2799 0.8227 0.0000
vt 0.0418 0.8227 0.0000
vt 0.0396 0.7480 0.0000
vt 0.2793 0.7480 0.0000
vt 0.2793 0.7647 0.0000
vt 0.0396 0.7647 0.0000
vt 0.0513 0.8872 0.0000
vt 0.2914 0.8872 0.0000
vt 0.2914 0.9037 0.0000
vt 0.0513 0.9037 0.0000
vt 0.0554 0.9155 0.0000
vt 0.2716 0.9155 0.0000
vt 0.0536 0.7852 0.0000
vt 0.2681 0.7852 0.0000
vt 0.0515 0.7265 0.0000
vt 0.2675 0.7265 0.0000
vt 0.0632 0.8658 0.0000
vt 0.2795 0.8658 0.0000
vt 0.2344 0.8444 0.0000
vt 0.0511 0.8444 0.0000
vt 0.0208 0.8141 0.0000
vt 0.2647 0.8141 0.0000
vt 0.2892 0.6777 0.0000
vt 0.1059 0.6777 0.0000
vt 0.0756 0.6474 0.0000
vt 0.3196 0.6474 0.0000
vt 0.2330 0.9238 0.0000
vt 0.0496 0.9238 0.0000
vt 0.0193 0.8935 0.0000
vt 0.2633 0.8935 0.0000
vt 0.2582 0.7622 0.0000
vt 0.0749 0.7622 0.0000
vt 0.0446 0.7319 0.0000
vt 0.2885 0.7319 0.0000
vt 0.0038 0.4964 0.0000
vt 0.1828 0.2905 0.0000
vt 0.1828 0.2538 0.0000
vt 0.0038 0.2538 0.0000
vt 0.2464 0.4964 0.0000
vt 0.2303 0.2905 0.0000
vt 0.2122 0.4573 0.0000
vt 0.2122 0.4227 0.0000
vt 0.2061 0.4227 0.0000
vt 0.2061 0.4573 0.0000
vt 0.2464 0.2727 0.0000
vt 0.1956 0.2925 0.0000
vt 0.1956 0.3523 0.0000
vt 0.2056 0.3523 0.0000
vt 0.2056 0.2925 0.0000
vt 0.2303 0.2727 0.0000
vt 0.1703 0.4112 0.0000
vt 0.1703 0.4332 0.0000
vt 0.1803 0.4332 0.0000
vt 0.1803 0.4112 0.0000
# 324 texture coords

g Building_4_LOD_2
s 16
f 1/1/1 2/2/1 3/3/1 4/4/1 
s 32
f 5/5/2 1/6/2 4/7/2 6/8/2 
s 64
f 7/9/3 5/10/3 6/11/3 8/12/3 
s off
f 9/13/4 10/14/4 7/15/4 2/16/4 
f 11/17/4 9/18/4 2/19/4 1/20/4 
f 12/21/4 11/22/4 1/23/4 5/24/4 
f 10/25/4 12/26/4 5/27/4 7/28/4 
f 13/29/5 14/30/5 10/31/5 9/32/5 
f 15/33/1 13/34/1 9/35/1 11/36/1 
f 16/37/2 15/38/2 11/39/2 12/40/2 
f 14/41/3 16/42/3 12/43/3 10/44/3 
f 17/45/4 18/46/4 14/47/4 13/48/4 
f 19/49/4 17/50/4 13/51/4 15/52/4 
f 20/53/4 19/54/4 15/55/4 16/56/4 
f 18/57/4 20/58/4 16/59/4 14/60/4 
f 21/61/5 22/62/5 18/63/5 17/64/5 
f 23/65/1 21/66/1 17/67/1 19/68/1 
f 24/69/2 23/70/2 19/71/2 20/72/2 
f 22/73/3 24/74/3 20/75/3 18/76/3 
f 25/77/4 26/78/4 22/79/4 21/80/4 
f 27/81/4 25/82/4 21/83/4 23/84/4 
f 28/85/4 27/86/4 23/87/4 24/88/4 
f 26/89/4 28/90/4 24/91/4 22/92/4 
f 29/93/6 30/94/6 31/95/6 32/96/6 
f 33/97/2 34/98/2 27/99/2 28/100/2 
f 35/101/5 30/94/5 26/102/5 36/103/5 
s 8
f 37/104/5 38/105/5 7/106/5 8/107/5 
s off
f 39/108/7 40/109/7 41/110/7 32/111/7 
f 26/102/5 25/112/5 42/113/5 36/103/5 
f 43/114/3 44/115/3 45/116/3 46/117/3 
f 44/115/8 47/118/8 48/119/8 45/116/8 
f 47/118/8 29/120/8 49/121/8 48/119/8 
f 47/122/2 44/123/2 50/124/2 51/125/2 
f 52/126/2 50/124/2 44/123/2 53/127/2 
f 52/126/2 53/127/2 54/128/2 55/129/2 
f 56/130/2 57/131/2 54/128/2 34/98/2 
f 54/128/2 57/131/2 58/132/2 47/122/2 
f 33/97/2 59/133/2 56/130/2 34/98/2 
f 25/134/1 60/135/1 61/136/1 31/137/1 
f 25/134/1 27/138/1 62/139/1 60/135/1 
f 34/140/1 63/141/1 62/139/1 27/138/1 
f 33/142/3 28/143/3 64/144/3 65/145/3 
f 28/143/3 26/146/3 66/147/3 64/144/3 
f 47/118/3 33/142/3 67/148/3 68/149/3 
f 33/142/3 30/150/3 69/151/3 67/148/3 
f 29/120/9 47/118/9 68/149/9 70/152/9 
f 31/95/5 71/153/5 42/113/5 25/112/5 
f 32/96/10 41/154/10 72/155/10 73/156/10 
f 29/93/11 32/96/11 73/156/11 74/157/11 
f 29/93/12 74/157/12 75/158/12 43/159/12 
f 54/160/1 76/161/1 39/108/1 32/111/1 
f 53/162/13 77/163/13 76/161/13 54/160/13 
s 8
f 2/164/5 78/165/5 79/166/5 3/167/5 
f 3/167/5 79/166/5 37/104/5 8/107/5 
f 7/106/5 38/105/5 78/165/5 2/164/5 
s off
f 47/122/2 51/125/2 55/129/2 54/128/2 
f 47/122/2 58/132/2 59/133/2 33/97/2 
f 29/120/9 70/152/9 69/151/9 30/150/9 
f 43/114/14 46/117/14 49/121/14 29/120/14 
f 43/159/12 75/158/12 72/155/12 41/154/12 
f 30/150/3 80/168/3 66/147/3 26/146/3 
f 30/150/3 33/142/3 65/145/3 80/168/3 
f 30/94/5 35/101/5 71/153/5 31/95/5 
f 31/137/1 61/136/1 63/141/1 34/140/1 
f 41/110/7 40/109/7 77/163/7 53/162/7 
f 54/160/1 32/111/1 31/137/1 34/140/1 
s 16
f 81/169/3 82/170/3 83/171/3 84/172/3 
s 32
f 84/173/12 83/174/15 85/175/12 86/176/12 
s 64
f 86/177/7 85/178/13 87/179/7 88/180/1 
s off
f 89/181/16 90/182/16 91/183/16 92/184/16 
f 83/174/17 93/185/17 94/186/17 85/175/17 
f 87/187/2 90/181/2 95/188/2 96/189/2 
s 8
f 87/187/2 97/190/2 98/191/2 88/192/2 
s off
f 99/193/18 100/194/18 101/195/18 92/196/18 
f 102/197/2 82/198/2 87/187/2 96/189/2 
f 103/199/1 104/200/1 105/201/1 106/202/1 
f 107/203/19 108/204/19 104/200/19 103/199/19 
f 109/205/20 91/206/20 108/204/20 107/203/20 
f 110/207/15 104/208/15 108/209/15 111/210/15 
f 104/208/5 110/207/5 112/211/5 113/212/5 
f 114/213/5 113/212/5 112/211/5 115/214/5 
f 114/213/5 116/215/5 117/216/5 93/186/5 
f 118/217/17 116/215/17 114/213/17 108/209/17 
f 117/216/5 119/218/5 94/185/5 93/186/5 
f 120/219/21 121/220/21 82/170/21 89/221/21 
f 122/222/3 83/171/3 82/170/3 121/220/3 
f 122/222/9 123/223/9 93/224/9 83/171/9 
f 124/225/19 85/178/19 94/226/19 125/227/19 
f 126/228/19 87/179/19 85/178/19 124/225/19 
f 127/229/7 94/230/7 108/204/7 128/231/7 
f 129/232/7 90/226/7 94/230/7 127/229/7 
f 128/231/22 108/204/22 91/206/22 130/233/22 
f 102/197/23 131/234/23 89/182/23 82/198/23 
f 132/235/24 99/236/24 92/184/24 133/237/24 
f 133/237/25 92/184/25 91/183/25 134/238/25 
f 135/239/26 134/238/26 91/183/26 105/240/26 
f 101/195/27 136/241/27 114/242/27 92/196/27 
f 136/241/9 137/243/9 113/244/9 114/242/9 
s 8
f 138/245/2 139/246/2 82/198/2 81/247/2 
f 139/246/2 97/190/2 87/187/2 82/198/2 
s off
f 115/214/15 111/210/15 108/209/15 114/213/15 
f 119/218/17 118/217/17 108/209/17 94/185/17 
f 129/232/28 130/233/28 91/206/28 90/226/28 
f 109/205/20 106/202/20 105/201/20 91/206/20 
f 132/235/29 135/239/29 105/240/29 99/236/29 
f 126/228/19 140/248/19 90/230/19 87/179/19 
f 125/227/1 94/226/1 90/230/1 140/248/1 
f 131/234/23 95/188/23 90/181/23 89/182/23 
f 123/223/30 120/219/30 89/221/30 93/224/30 
f 137/243/3 100/194/3 99/193/3 113/244/3 
f 89/224/31 92/196/31 114/242/31 93/221/31 
f 141/249/5 142/250/5 143/251/5 144/252/5 
f 142/253/1 145/254/1 146/255/1 143/256/1 
f 145/257/2 147/258/2 148/259/2 146/260/2 
f 147/261/3 141/262/3 144/263/3 148/264/3 
f 149/265/5 150/266/5 151/267/5 152/268/5 
f 150/269/1 153/270/1 154/271/1 151/272/1 
f 153/273/2 155/274/2 156/275/2 154/276/2 
f 155/277/3 149/278/3 152/279/3 156/280/3 
f 43/281/32 41/282/32 142/250/32 141/249/32 
f 41/283/32 53/284/32 145/254/32 142/253/32 
f 53/285/32 44/286/32 147/258/32 145/257/32 
f 44/287/32 43/288/32 141/262/32 147/261/32 
f 144/252/32 143/251/32 150/266/32 149/265/32 
f 143/256/32 146/255/32 153/270/32 150/269/32 
f 146/260/32 148/259/32 155/274/32 153/273/32 
f 148/264/32 144/263/32 149/278/32 155/277/32 
s 1
f 99/289/4 105/290/4 152/291/4 151/292/4 
f 105/293/4 104/294/4 156/295/4 152/296/4 
f 104/297/4 113/298/4 154/299/4 156/300/4 
f 113/301/4 99/302/4 151/303/4 154/304/4 
s 4
f 157/305/4 158/306/4 159/307/4 160/308/4 
f 158/306/4 157/305/4 161/309/4 162/310/4 
s 1
f 159/311/2 158/312/2 163/313/2 164/314/2 
s 4
f 162/310/4 161/309/4 165/315/4 
s 8
f 158/316/3 162/317/3 166/318/3 163/319/3 
s off
f 165/315/4 167/320/4 162/310/4 
f 162/321/5 167/322/5 168/323/5 166/324/5 
# 136 polygons - 2 triangles

