# 3ds Max Wavefront OBJ Exporter v0.97b - (c)2007 guruware
# File Created: 14.08.2016 13:13:38

#
# object Building_2_LOD_3
#

v  -2.3828 4.4367 5.5952
v  -2.3828 5.3462 5.5952
v  -5.7283 6.1120 5.5952
v  -5.7283 -0.1680 5.5952
v  -0.8077 4.4367 5.5952
v  2.5378 -0.1680 5.5952
v  2.5378 6.1120 5.5952
v  -0.8077 5.3462 5.5952
v  -2.1368 1.8960 5.5952
v  -1.0537 1.8960 5.5952
v  -1.3798 4.4367 5.5952
v  -2.1368 -0.1680 5.5952
v  -1.8108 4.4367 5.5952
v  -1.0537 -0.1680 5.5952
v  -1.5953 8.9581 5.5952
v  -2.1730 7.0291 5.5952
v  -2.0335 7.1917 5.5952
v  -1.8939 7.0291 5.5952
v  -1.3798 5.3462 5.5952
v  -1.8108 5.3462 5.5952
v  -1.6014 7.4059 5.5952
v  -1.6014 7.6937 5.5952
v  -1.4618 7.8632 5.5952
v  -1.3223 7.6937 5.5952
v  -1.3223 7.4059 5.5952
v  -1.1920 7.0310 5.5952
v  -1.0534 7.1917 5.5952
v  -1.8939 6.7374 5.5952
v  -1.1929 6.7374 5.5952
v  -1.0937 5.6254 5.5952
v  -2.0968 5.6132 5.5952
v  -0.9138 6.7374 5.5952
v  -0.9138 7.0291 5.5952
v  -2.1730 6.7374 5.5952
v  1.6912 1.8920 -8.9359
v  2.5378 -0.1680 -8.9359
v  1.6912 -0.1680 -8.9359
v  -1.1879 4.4266 -8.9359
v  -1.1879 5.3398 -8.9359
v  0.5888 5.1580 -8.9359
v  0.5888 4.6979 -8.9359
v  -3.7566 5.1580 -8.9359
v  -2.0026 5.3398 -8.9359
v  -2.0026 4.4266 -8.9359
v  -3.7566 4.6979 -8.9359
v  -1.5953 8.9581 -8.9359
v  0.5751 1.8920 -8.9359
v  0.5751 -0.1680 -8.9359
v  -5.7283 -0.1680 -8.9359
v  -5.7283 6.1120 -8.9359
v  -4.1679 4.6979 -8.9359
v  1.0001 4.6979 -8.9359
v  2.5378 6.1120 -8.9359
v  1.0001 5.1580 -8.9359
v  -4.1679 5.1580 -8.9359
v  -5.7283 6.1120 5.0952
v  -5.7283 6.1120 -8.4359
v  -5.7283 1.9121 1.4613
v  -5.7283 1.1257 2.0600
v  -5.7283 1.9123 2.0600
v  -5.7283 3.3029 1.4613
v  -5.7283 4.4759 2.0315
v  -5.7283 -0.1680 1.4613
v  -5.7283 5.2499 1.4613
v  -5.7283 5.2503 2.0315
v  -5.7283 5.2503 2.6150
v  -5.7283 3.3029 0.0761
v  -5.7283 1.9121 0.0761
v  -5.7283 6.1120 -4.8316
v  -5.7283 5.2503 -4.2615
v  -5.7283 5.2503 -3.6779
v  -5.7283 1.9123 2.6435
v  -5.7283 1.1257 2.6435
v  -5.7283 4.4759 2.6150
v  -5.7283 6.1120 1.4613
v  -5.7283 1.9121 -4.8316
v  -5.7283 1.1257 -4.2330
v  -5.7283 1.9123 -4.2330
v  -5.7283 3.3029 -4.8316
v  -5.7283 4.4759 -4.2615
v  -5.7283 -0.1680 -4.8316
v  -5.7283 5.2499 -4.8316
v  -5.7283 3.3029 -6.2169
v  -5.7283 1.9121 -6.2169
v  -5.7283 5.2499 -6.2169
v  -5.7283 1.1257 -3.6494
v  -5.7283 1.9123 -3.6494
v  -5.7283 4.4759 -3.6779
v  -5.7283 0.9809 -7.5763
v  -5.7283 1.7875 -7.5763
v  -5.7283 0.9809 -7.1853
v  -5.7283 -0.1680 -6.2169
v  -5.7283 1.7875 -7.1853
v  -5.7283 -0.1680 0.0761
v  -5.7283 0.9809 -1.4553
v  -5.7283 0.9809 -1.8463
v  5.7215 6.1120 5.5952
v  5.7215 5.4582 3.9610
v  5.7215 5.4582 -7.3016
v  5.7215 6.1120 -8.9359
v  5.7215 -0.1680 -8.9359
v  5.7215 -0.1680 -7.3016
v  5.7215 -0.1680 5.5952
v  2.5378 5.2499 1.4613
v  2.5378 5.2499 0.0761
v  2.5378 6.1120 -1.6714
v  2.5378 6.1120 5.4876
v  2.5378 3.2464 1.4613
v  2.5378 -0.1680 5.4876
v  -5.7283 5.2499 0.0761
v  -5.7283 1.7875 -1.4553
v  -5.7283 1.7875 -1.8463
v  2.5378 -0.1680 -1.6692
v  2.5378 6.1120 -8.8282
v  2.5378 3.2464 0.0761
v  2.5378 -0.1680 -8.8282
v  5.1702 3.2173 -1.6703
v  5.1702 4.3890 -1.6703
v  5.1702 4.4524 3.9797
v  5.1702 3.2173 3.9797
v  4.5644 3.2435 2.5061
v  5.4644 3.2435 2.5061
v  5.4644 3.4295 2.5061
v  4.5644 3.4295 2.5061
v  5.2282 3.6290 2.2699
v  4.8006 3.6290 2.2699
v  5.2282 5.1112 2.2699
v  4.8006 5.1112 2.2699
v  5.4644 5.4967 2.5061
v  4.5644 5.4967 2.5061
v  5.4644 3.2435 1.6061
v  5.4644 3.4295 1.6061
v  5.2282 3.6290 1.8423
v  5.2282 5.1112 1.8423
v  5.4644 5.4967 1.6061
v  4.5644 3.2435 1.6061
v  4.5644 3.4295 1.6061
v  4.8006 3.6290 1.8423
v  4.8006 5.1112 1.8423
v  4.5644 5.4967 1.6061
v  4.5644 -0.1680 0.6212
v  5.4644 -0.1680 0.6212
v  5.2282 0.4516 0.3849
v  4.8006 0.4516 0.3849
v  5.2282 2.5326 0.3849
v  4.8006 2.5326 0.3849
v  5.4644 2.9922 0.6212
v  4.5644 2.9922 0.6212
v  5.4644 -0.1680 -0.2788
v  5.2282 0.4516 -0.0426
v  5.2282 2.5326 -0.0426
v  5.4644 2.9922 -0.2788
v  4.5644 -0.1680 -0.2788
v  4.8006 0.4516 -0.0426
v  4.8006 2.5326 -0.0426
v  4.5644 2.9922 -0.2788
v  5.7215 -0.1680 3.9610
v  5.9001 3.2776 -4.6538
v  5.9001 2.9776 -4.6538
v  5.9001 2.9776 -7.6139
v  5.9001 3.2776 -7.6139
v  5.9001 3.2776 4.2479
v  5.9001 2.9776 4.2479
v  5.9001 2.9776 0.9589
v  5.9001 3.2776 0.9589
v  5.4644 3.2435 -1.2307
v  5.4644 3.2435 -2.1307
v  5.2282 3.6290 -1.8945
v  5.2282 3.6290 -1.4669
v  5.2282 5.1112 -1.8945
v  5.2282 5.1112 -1.4669
v  5.4644 5.4967 -2.1307
v  5.4644 5.4967 -1.2307
v  4.5644 3.2435 -2.1307
v  4.8006 3.6290 -1.8945
v  4.8006 5.1112 -1.8945
v  4.5644 5.4967 -2.1307
v  4.5644 3.2435 -1.2307
v  4.8006 3.6290 -1.4669
v  4.8006 5.1112 -1.4669
v  4.5644 5.4967 -1.2307
v  5.4644 3.2435 -5.8358
v  4.5644 3.2435 -5.8358
v  4.8006 3.6290 -5.5996
v  5.2282 3.6290 -5.5996
v  4.8006 5.1112 -5.5996
v  5.2282 5.1112 -5.5996
v  4.5644 5.4967 -5.8358
v  5.4644 5.4967 -5.8358
v  4.5644 3.2435 -4.9358
v  5.4644 3.2435 -4.9358
v  5.2282 3.6290 -5.1720
v  4.8006 3.6290 -5.1720
v  5.2282 5.1112 -5.1720
v  4.8006 5.1112 -5.1720
v  5.4644 5.4967 -4.9358
v  4.5644 5.4967 -4.9358
v  5.4644 -0.1680 -3.3934
v  5.4644 -0.1680 -4.2934
v  5.2282 0.4516 -4.0572
v  5.2282 0.4516 -3.6296
v  5.2282 2.5326 -4.0572
v  5.2282 2.5326 -3.6296
v  5.4644 2.9922 -4.2934
v  5.4644 2.9922 -3.3934
v  4.5644 -0.1680 -4.2934
v  4.8006 0.4516 -4.0572
v  4.8006 2.5326 -4.0572
v  4.5644 2.9922 -4.2934
v  4.5644 -0.1680 -3.3934
v  4.8006 0.4516 -3.6296
v  4.8006 2.5326 -3.6296
v  4.5644 2.9922 -3.3934
v  -5.6335 6.4930 -8.3710
v  -1.7688 9.1542 -8.3710
v  -1.7688 9.1542 -9.2635
v  -5.6335 6.4930 -9.2635
v  -1.6270 8.9483 -8.3710
v  -5.4917 6.2870 -8.3710
v  -1.6270 8.9483 -9.0770
v  -5.4917 6.2870 -9.0770
v  2.3775 6.4930 -8.3710
v  2.3775 6.4930 -9.2635
v  -1.4872 9.1542 -9.2635
v  -1.4872 9.1542 -8.3710
v  -1.6290 8.9483 -8.3710
v  2.2357 6.2870 -8.3710
v  2.2357 6.2870 -9.0770
v  -1.6290 8.9483 -9.0770
v  -5.6335 6.4930 4.9874
v  -5.6335 6.4930 5.8798
v  -1.7688 9.1542 5.8798
v  -1.7688 9.1542 4.9874
v  -1.6270 8.9483 4.9874
v  -5.4917 6.2870 4.9874
v  -5.4917 6.2870 5.6933
v  -1.6270 8.9483 5.6933
v  2.3775 6.4930 4.9874
v  -1.4872 9.1542 4.9874
v  -1.4872 9.1542 5.8798
v  2.3775 6.4930 5.8798
v  -1.6290 8.9483 4.9874
v  2.2357 6.2870 4.9874
v  -1.6290 8.9483 5.6933
v  2.2357 6.2870 5.6933
v  -5.9001 6.4160 5.7645
v  -5.9001 6.4519 -1.6717
v  -5.7834 6.0751 -1.6717
v  -5.7834 6.0403 5.6478
v  2.5945 6.0403 5.6478
v  2.7112 6.4160 5.7645
v  2.5945 6.0751 -1.6717
v  2.7112 6.4519 -1.6717
v  -5.9001 6.4160 -9.1078
v  -5.7834 6.0403 -8.9911
v  2.7112 6.4160 -9.1078
v  2.5945 6.0403 -8.9911
v  2.5296 -0.1680 9.1078
v  2.5296 -0.1680 5.5764
v  2.5296 3.7730 5.5764
v  2.5296 2.6375 9.1078
v  -5.7071 -0.1680 9.1078
v  -5.7071 2.6375 9.1078
v  -5.7071 3.7730 5.5764
v  -5.7071 -0.1680 5.5764
v  -0.5373 1.9866 9.1078
v  0.8939 1.9866 9.1078
v  1.0880 1.7972 9.1078
v  1.0880 1.1802 9.1078
v  0.6999 1.1802 9.1078
v  0.6999 1.7972 9.1078
v  -0.3432 1.7972 9.1078
v  -0.3432 1.1802 9.1078
v  -4.4152 2.0270 9.1078
v  -4.4151 -0.1680 9.1078
v  -3.3440 2.0270 9.1078
v  -3.3439 -0.1680 9.1078
v  -0.7313 1.1802 9.1078
v  -0.7313 1.7972 9.1078
v  5.1702 3.2173 -7.3203
v  5.1702 4.3256 -7.3203
# 281 vertices

vn 0.0000 0.0000 1.0000
vn 0.0000 -0.0000 1.0000
vn -0.0000 0.0000 1.0000
vn -0.0000 -0.0000 1.0000
vn 0.0000 0.0000 -1.0000
vn -1.0000 0.0000 -0.0000
vn -1.0000 -0.0000 -0.0000
vn -1.0000 -0.0000 0.0000
vn -1.0000 0.0000 0.0000
vn 1.0000 0.0000 -0.0000
vn 0.0000 0.3085 0.9512
vn 0.0000 0.4920 0.8706
vn 0.0000 -0.3073 0.9516
vn 0.0000 -0.5225 0.8526
vn 0.9512 0.3085 -0.0000
vn 0.8706 0.4920 -0.0000
vn 0.9516 -0.3073 -0.0000
vn 0.8526 -0.5225 -0.0000
vn 0.0000 0.3085 -0.9512
vn 0.0000 0.4920 -0.8706
vn 0.0000 -0.3073 -0.9516
vn 0.0000 -0.5225 -0.8526
vn 0.0000 0.3562 0.9344
vn 0.0000 0.1989 0.9800
vn 0.0000 -0.2633 0.9647
vn 0.0000 -0.4571 0.8894
vn 0.9344 0.3562 -0.0000
vn 0.9800 0.1989 -0.0000
vn 0.9647 -0.2633 -0.0000
vn 0.8894 -0.4571 -0.0000
vn 0.0000 0.3562 -0.9344
vn 0.0000 0.1989 -0.9800
vn 0.0000 -0.2633 -0.9647
vn 0.0000 -0.4571 -0.8894
vn 0.8526 0.5225 -0.0000
vn 0.9516 0.3073 -0.0000
vn 0.0000 0.5225 -0.8526
vn 0.0000 0.3073 -0.9516
vn 0.0000 0.5225 0.8526
vn 0.0000 0.3073 0.9516
vn -0.5672 0.8236 -0.0000
vn 0.3391 -0.4925 -0.8016
vn 0.5672 0.8236 -0.0000
vn -0.3391 -0.4925 -0.8016
vn 0.0000 -0.0000 -1.0000
vn 0.3391 -0.4925 0.8016
vn -0.0000 -0.0000 -1.0000
vn -0.3391 -0.4925 0.8016
vn -0.9552 -0.2960 -0.0014
vn 0.0000 -0.2966 0.9550
vn 0.9552 -0.2960 -0.0014
vn -0.9552 -0.2960 0.0014
vn 0.0000 -0.2966 -0.9550
vn 0.9552 -0.2960 0.0014
# 54 vertex normals

vt 0.7086 0.7458 0.0000
vt 0.7086 0.7939 0.0000
vt 0.5314 0.8345 0.0000
vt 0.5314 0.5019 0.0000
vt 0.7921 0.7458 0.0000
vt 0.9692 0.5019 0.0000
vt 0.9694 0.8347 0.0000
vt 0.7921 0.7941 0.0000
vt 0.7216 0.6112 0.0000
vt 0.7790 0.6112 0.0000
vt 0.7617 0.7458 0.0000
vt 0.7216 0.5019 0.0000
vt 0.7389 0.7458 0.0000
vt 0.7790 0.5019 0.0000
vt 0.7504 0.9852 0.0000
vt 0.7197 0.8831 0.0000
vt 0.7271 0.8917 0.0000
vt 0.7345 0.8831 0.0000
vt 0.7617 0.7939 0.0000
vt 0.7389 0.7939 0.0000
vt 0.7500 0.9030 0.0000
vt 0.7500 0.9183 0.0000
vt 0.7574 0.9272 0.0000
vt 0.7646 0.9181 0.0000
vt 0.7648 0.9030 0.0000
vt 0.7717 0.8832 0.0000
vt 0.7790 0.8916 0.0000
vt 0.7345 0.8676 0.0000
vt 0.7716 0.8677 0.0000
vt 0.7770 0.8088 0.0000
vt 0.7238 0.8081 0.0000
vt 0.7865 0.8677 0.0000
vt 0.7865 0.8832 0.0000
vt 0.7197 0.8676 0.0000
vt 0.5560 0.6105 0.0000
vt 0.5111 0.5014 0.0000
vt 0.5560 0.5014 0.0000
vt 0.7085 0.7448 0.0000
vt 0.7085 0.7932 0.0000
vt 0.6144 0.7836 0.0000
vt 0.6144 0.7592 0.0000
vt 0.8446 0.7836 0.0000
vt 0.7517 0.7932 0.0000
vt 0.7517 0.7448 0.0000
vt 0.8446 0.7592 0.0000
vt 0.7301 0.9848 0.0000
vt 0.6151 0.6105 0.0000
vt 0.6151 0.5014 0.0000
vt 0.9490 0.5014 0.0000
vt 0.9490 0.8341 0.0000
vt 0.8664 0.7592 0.0000
vt 0.5926 0.7592 0.0000
vt 0.5111 0.8341 0.0000
vt 0.5926 0.7836 0.0000
vt 0.8664 0.7836 0.0000
vt 0.9877 0.8348 0.0000
vt 0.9612 0.8348 0.0000
vt 0.9877 0.5022 0.0000
vt 0.8010 0.8347 0.0000
vt 0.8010 0.5020 0.0000
vt 0.7745 0.8347 0.0000
vt 0.7687 0.6123 0.0000
vt 0.8004 0.5707 0.0000
vt 0.8004 0.6124 0.0000
vt 0.7687 0.6860 0.0000
vt 0.7989 0.7482 0.0000
vt 0.7687 0.5022 0.0000
vt 0.7687 0.7892 0.0000
vt 0.7989 0.7892 0.0000
vt 0.8298 0.7892 0.0000
vt 0.8436 0.6859 0.0000
vt 0.8436 0.6122 0.0000
vt 0.9170 0.6122 0.0000
vt 0.9170 0.6859 0.0000
vt 0.5836 0.8347 0.0000
vt 0.6138 0.7890 0.0000
vt 0.6447 0.7890 0.0000
vt 0.8313 0.6124 0.0000
vt 0.8313 0.5707 0.0000
vt 0.8298 0.7482 0.0000
vt 0.7687 0.8348 0.0000
vt 0.5836 0.6122 0.0000
vt 0.6153 0.5705 0.0000
vt 0.6153 0.6122 0.0000
vt 0.5836 0.6859 0.0000
vt 0.6138 0.7480 0.0000
vt 0.5836 0.5020 0.0000
vt 0.5836 0.7890 0.0000
vt 0.6570 0.6859 0.0000
vt 0.6570 0.6122 0.0000
vt 0.6570 0.7890 0.0000
vt 0.6462 0.5705 0.0000
vt 0.6462 0.6122 0.0000
vt 0.6447 0.7480 0.0000
vt 0.7290 0.5628 0.0000
vt 0.7290 0.6056 0.0000
vt 0.7083 0.5628 0.0000
vt 0.6570 0.5020 0.0000
vt 0.7083 0.6056 0.0000
vt 0.8436 0.5020 0.0000
vt 0.7625 0.5628 0.0000
vt 0.7418 0.5628 0.0000
vt 0.4380 0.9921 0.0000
vt 0.5089 0.9638 0.0000
vt 0.9975 0.9638 0.0000
vt 1.0684 0.9921 0.0000
vt 0.9854 0.5019 0.0000
vt 0.9854 0.8346 0.0000
vt 0.8988 0.8000 0.0000
vt 0.8988 0.5019 0.0000
vt 0.8006 0.5019 0.0000
vt 0.9692 0.8346 0.0000
vt 0.8006 0.8346 0.0000
vt 0.6798 0.8341 0.0000
vt 0.6798 0.5014 0.0000
vt 0.6660 0.9263 0.0000
vt 0.7717 0.9263 0.0000
vt 0.9052 0.9922 0.0000
vt 0.4751 0.9922 0.0000
vt 0.6660 0.7733 0.0000
vt 0.4751 0.5126 0.0000
vt 0.8436 0.7890 0.0000
vt 0.7625 0.6056 0.0000
vt 0.7418 0.6056 0.0000
vt 0.9170 0.8347 0.0000
vt 0.9170 0.7890 0.0000
vt 0.9054 0.5126 0.0000
vt 0.4752 0.9922 0.0000
vt 0.7717 0.7733 0.0000
vt 0.9050 0.5126 0.0000
vt 0.4752 0.5126 0.0000
vt 0.6953 0.7155 0.0000
vt 0.6953 0.7776 0.0000
vt 0.9946 0.7809 0.0000
vt 0.9946 0.7155 0.0000
vt 0.5009 0.1565 0.0000
vt 0.3674 0.1565 0.0000
vt 0.3674 0.1289 0.0000
vt 0.5009 0.1289 0.0000
vt 0.2646 0.0796 0.0000
vt 0.4170 0.0796 0.0000
vt 0.3770 0.1255 0.0000
vt 0.3046 0.1255 0.0000
vt 0.2535 0.0011 0.0000
vt 0.3169 0.0011 0.0000
vt 0.3169 0.2209 0.0000
vt 0.2535 0.2209 0.0000
vt 0.3058 0.1805 0.0000
vt 0.3782 0.1805 0.0000
vt 0.4182 0.2443 0.0000
vt 0.2658 0.2443 0.0000
vt 0.4061 0.2285 0.0000
vt 0.2726 0.2285 0.0000
vt 0.2726 0.2009 0.0000
vt 0.4061 0.2009 0.0000
vt 0.4346 0.1418 0.0000
vt 0.2822 0.1418 0.0000
vt 0.3222 0.0958 0.0000
vt 0.3946 0.0958 0.0000
vt 0.3638 0.0040 0.0000
vt 0.4272 0.0040 0.0000
vt 0.4272 0.2239 0.0000
vt 0.3638 0.2239 0.0000
vt 0.2975 0.0546 0.0000
vt 0.3699 0.0546 0.0000
vt 0.4099 0.1184 0.0000
vt 0.2575 0.1184 0.0000
vt 0.3870 0.0611 0.0000
vt 0.2535 0.0611 0.0000
vt 0.2535 0.0335 0.0000
vt 0.3870 0.0335 0.0000
vt 0.4163 0.0339 0.0000
vt 0.2639 0.0339 0.0000
vt 0.3039 -0.0121 0.0000
vt 0.3763 -0.0121 0.0000
vt 0.2951 0.0018 0.0000
vt 0.3585 0.0018 0.0000
vt 0.3585 0.2217 0.0000
vt 0.2951 0.2217 0.0000
vt 0.4562 0.0980 0.0000
vt 0.3838 0.0980 0.0000
vt 0.3438 0.0342 0.0000
vt 0.4962 0.0342 0.0000
vt 0.3693 0.1556 0.0000
vt 0.2631 0.1556 0.0000
vt 0.2909 0.0824 0.0000
vt 0.3414 0.0824 0.0000
vt 0.4423 0.0025 0.0000
vt 0.4927 0.0025 0.0000
vt 0.4927 0.2481 0.0000
vt 0.4423 0.2481 0.0000
vt 0.4527 0.1174 0.0000
vt 0.3980 0.1174 0.0000
vt 0.3678 0.0653 0.0000
vt 0.4830 0.0653 0.0000
vt 0.4940 0.1038 0.0000
vt 0.3878 0.1038 0.0000
vt 0.4157 0.0307 0.0000
vt 0.4661 0.0307 0.0000
vt 0.3163 0.0026 0.0000
vt 0.3668 0.0026 0.0000
vt 0.3668 0.2482 0.0000
vt 0.3163 0.2482 0.0000
vt 0.4279 0.0537 0.0000
vt 0.3732 0.0537 0.0000
vt 0.3430 0.0016 0.0000
vt 0.4581 0.0016 0.0000
vt 0.3684 0.0473 0.0000
vt 0.2622 0.0473 0.0000
vt 0.2900 -0.0258 0.0000
vt 0.3405 -0.0258 0.0000
vt 0.2518 0.0025 0.0000
vt 0.3023 0.0025 0.0000
vt 0.3023 0.2481 0.0000
vt 0.2518 0.2481 0.0000
vt 0.3587 0.1906 0.0000
vt 0.4134 0.1906 0.0000
vt 0.4437 0.2427 0.0000
vt 0.3285 0.2427 0.0000
vt 0.7961 0.8344 0.0000
vt 0.7961 0.5018 0.0000
vt 0.8827 0.5018 0.0000
vt 0.8827 0.7998 0.0000
vt 0.3214 0.3665 0.0000
vt 0.3214 0.3723 0.0000
vt 0.2649 0.3723 0.0000
vt 0.2649 0.3665 0.0000
vt 0.4915 0.3665 0.0000
vt 0.4915 0.3723 0.0000
vt 0.4286 0.3723 0.0000
vt 0.4286 0.3665 0.0000
vt 0.2646 0.0617 0.0000
vt 0.4170 0.0617 0.0000
vt 0.4346 0.1596 0.0000
vt 0.2822 0.1596 0.0000
vt 0.2862 0.1573 0.0000
vt 0.4387 0.1573 0.0000
vt 0.3987 0.2212 0.0000
vt 0.3263 0.2212 0.0000
vt 0.4300 0.0049 0.0000
vt 0.4934 0.0049 0.0000
vt 0.4934 0.2247 0.0000
vt 0.4300 0.2247 0.0000
vt 0.4547 0.2477 0.0000
vt 0.3823 0.2477 0.0000
vt 0.3422 0.1839 0.0000
vt 0.4947 0.1839 0.0000
vt 0.4163 0.0518 0.0000
vt 0.2639 0.0518 0.0000
vt 0.4959 0.0479 0.0000
vt 0.3897 0.0479 0.0000
vt 0.4175 -0.0252 0.0000
vt 0.4680 -0.0252 0.0000
vt 0.3787 0.0029 0.0000
vt 0.4292 0.0029 0.0000
vt 0.4292 0.2485 0.0000
vt 0.3787 0.2485 0.0000
vt 0.3056 0.1245 0.0000
vt 0.3603 0.1245 0.0000
vt 0.3905 0.1766 0.0000
vt 0.2754 0.1766 0.0000
vt 0.2471 0.2252 0.0000
vt 0.0021 0.2252 0.0000
vt 0.0021 0.1786 0.0000
vt 0.2471 0.1786 0.0000
vt 0.0021 0.2383 0.0000
vt 0.2471 0.2383 0.0000
vt 0.0021 0.1558 0.0000
vt 0.2471 0.1558 0.0000
vt 0.2471 0.1094 0.0000
vt 0.2471 0.0628 0.0000
vt 0.0021 0.0628 0.0000
vt 0.0021 0.1094 0.0000
vt 0.0021 0.1224 0.0000
vt 0.2471 0.1224 0.0000
vt 0.2471 0.0400 0.0000
vt 0.0021 0.0400 0.0000
vt 0.0089 0.1201 0.0000
vt 0.2060 0.1201 0.0000
vt 0.2059 0.1332 0.0000
vt 0.0120 0.1332 0.0000
vt 0.0061 0.2056 0.0000
vt 0.2484 0.2056 0.0000
vt 0.2484 0.2165 0.0000
vt 0.0028 0.2165 0.0000
vt 0.0014 0.0486 0.0000
vt 0.0044 0.0355 0.0000
vt 0.1984 0.0356 0.0000
vt 0.1985 0.0486 0.0000
vt 0.4761 0.5142 0.0000
vt 0.2890 0.5142 0.0000
vt 0.2890 0.7229 0.0000
vt 0.4761 0.6628 0.0000
vt 0.0406 0.5142 0.0000
vt 0.0406 0.6628 0.0000
vt 0.2276 0.7230 0.0000
vt 0.2276 0.5142 0.0000
vt 0.0396 0.6624 0.0000
vt 0.3135 0.6279 0.0000
vt 0.3893 0.6279 0.0000
vt 0.4759 0.6624 0.0000
vt 0.3996 0.6179 0.0000
vt 0.3996 0.5852 0.0000
vt 0.4759 0.5138 0.0000
vt 0.3790 0.5852 0.0000
vt 0.3790 0.6179 0.0000
vt 0.3238 0.6179 0.0000
vt 0.3238 0.5852 0.0000
vt 0.1081 0.6301 0.0000
vt 0.0396 0.5138 0.0000
vt 0.1081 0.5138 0.0000
vt 0.1648 0.6301 0.0000
vt 0.1648 0.5138 0.0000
vt 0.3032 0.5852 0.0000
vt 0.3032 0.6179 0.0000
vt 0.5045 0.7155 0.0000
vt 0.5045 0.7742 0.0000
vt 0.8038 0.7776 0.0000
vt 0.8038 0.7155 0.0000
# 319 texture coords

g Building_2_LOD_3
s 1
f 1/1/1 2/2/1 3/3/2 4/4/3 
f 5/5/3 6/6/3 7/7/1 8/8/4 
f 9/9/1 10/10/1 11/11/1 
f 4/4/3 12/12/1 9/9/1 
f 13/13/3 1/1/1 4/4/3 9/9/1 
f 6/6/3 5/5/3 11/11/1 10/10/1 
f 10/10/1 14/14/1 6/6/3 
f 15/15/4 3/3/2 16/16/2 17/17/4 
f 17/17/4 18/18/4 15/15/4 
f 13/13/3 9/9/1 11/11/1 
f 13/13/3 11/11/1 19/19/1 20/20/1 
f 21/21/1 22/22/1 18/18/4 
f 22/22/1 23/23/1 15/15/4 
f 22/22/1 15/15/4 18/18/4 
f 24/24/2 7/7/1 15/15/4 23/23/1 
f 25/25/1 26/26/4 27/27/1 
f 26/26/4 18/18/4 28/28/4 29/29/4 
f 18/18/4 26/26/4 25/25/1 21/21/1 
f 19/19/1 30/30/4 31/31/1 20/20/1 
f 32/32/1 30/30/4 8/8/4 7/7/1 
f 24/24/2 27/27/1 33/33/1 7/7/1 
f 7/7/1 33/33/1 32/32/1 
f 29/29/4 30/30/4 32/32/1 
f 3/3/2 34/34/1 16/16/2 
f 28/28/4 34/34/1 31/31/1 
f 3/3/2 2/2/1 31/31/1 34/34/1 
f 35/35/5 36/36/5 37/37/5 
f 38/38/5 39/39/5 40/40/5 41/41/5 
f 42/42/5 43/43/5 44/44/5 45/45/5 
f 39/39/5 46/46/5 40/40/5 
f 41/41/5 47/47/5 38/38/5 
f 44/44/5 38/38/5 47/47/5 48/48/5 
f 49/49/5 50/50/5 51/51/5 
f 49/49/5 51/51/5 45/45/5 
f 44/44/5 48/48/5 49/49/5 45/45/5 
f 35/35/5 47/47/5 41/41/5 52/52/5 
f 43/43/5 42/42/5 46/46/5 
f 39/39/5 43/43/5 46/46/5 
f 46/46/5 53/53/5 40/40/5 
f 42/42/5 50/50/5 46/46/5 
f 35/35/5 53/53/5 36/36/5 
f 35/35/5 52/52/5 53/53/5 
f 52/52/5 54/54/5 53/53/5 
f 50/50/5 55/55/5 51/51/5 
f 53/53/5 54/54/5 40/40/5 
f 42/42/5 55/55/5 50/50/5 
s 2
f 3/56/6 56/57/7 4/58/6 
f 50/59/6 49/60/8 57/61/8 
f 58/62/7 59/63/6 60/64/9 61/65/8 
f 60/64/9 62/66/6 61/65/8 
f 58/62/7 63/67/9 59/63/6 
f 64/68/7 61/65/8 62/66/6 65/69/7 
f 65/69/7 66/70/7 56/57/7 
f 67/71/7 68/72/7 58/73/7 61/74/8 
f 69/75/7 70/76/6 71/77/7 
f 72/78/7 73/79/9 4/58/6 
f 63/67/9 4/58/6 73/79/9 59/63/6 
f 62/66/6 60/64/9 72/78/7 74/80/6 
f 74/80/6 72/78/7 4/58/6 56/57/7 
f 56/57/7 66/70/7 74/80/6 
f 64/68/7 65/69/7 75/81/7 
f 65/69/7 56/57/7 75/81/7 
f 76/82/7 77/83/7 78/84/7 79/85/7 
f 78/84/7 80/86/7 79/85/7 
f 76/82/7 81/87/6 77/83/7 
f 82/88/7 79/85/7 80/86/7 70/76/6 
f 83/89/8 84/90/8 76/82/7 79/85/7 
f 57/61/8 85/91/8 82/88/7 69/75/7 
f 86/92/6 77/83/7 81/87/6 
f 80/86/7 78/84/7 87/93/7 88/94/6 
f 82/88/7 70/76/6 69/75/7 
f 83/89/8 85/91/8 57/61/8 
f 89/95/8 90/96/8 49/60/8 
f 90/96/8 57/61/8 49/60/8 
f 91/97/8 89/95/8 49/60/8 92/98/8 
f 84/90/8 93/99/9 91/97/8 92/98/8 
f 84/90/8 83/89/8 90/96/8 93/99/9 
f 94/100/6 95/101/7 96/102/7 81/87/6 
s 4
f 97/103/10 98/104/10 99/105/10 100/106/10 
f 101/107/10 100/108/10 99/109/10 102/110/10 
s 1
f 6/111/3 103/6/1 97/112/1 7/113/1 
f 53/114/5 100/53/5 101/36/5 36/115/5 
s 4
f 104/116/10 105/117/10 106/118/10 107/119/10 
f 108/120/10 104/116/10 107/119/10 109/121/10 
s 2
f 88/94/6 67/71/7 110/122/6 71/77/7 
f 95/101/7 94/100/6 68/72/7 111/123/7 
f 87/93/7 96/102/7 112/124/7 
f 112/124/7 88/94/6 87/93/7 
f 111/123/7 67/71/7 88/94/6 112/124/7 
f 111/123/7 68/72/7 67/71/7 
f 96/102/7 86/92/6 81/87/6 
f 87/93/7 86/92/6 96/102/7 
f 110/122/6 75/125/7 69/75/7 71/77/7 
f 110/122/6 64/126/7 75/125/7 
s 4
f 113/127/10 114/128/10 106/118/10 
f 105/117/10 115/129/10 113/130/10 106/118/10 
f 115/129/10 108/120/10 109/121/10 113/130/10 
f 113/127/10 116/131/10 114/128/10 
s 16
f 117/132/10 118/133/10 119/134/10 120/135/10 
s 2
f 121/136/1 122/137/1 123/138/11 124/139/11 
s 3
f 124/140/11 123/141/11 125/142/12 126/143/12 
s 1
f 126/144/12 125/145/12 127/146/13 128/147/13 
s 3
f 128/148/13 127/149/13 129/150/14 130/151/14 
s 4
f 122/152/10 131/153/10 132/154/15 123/155/15 
s 12
f 123/156/15 132/157/15 133/158/16 125/159/16 
s 8
f 125/160/16 133/161/16 134/162/17 127/163/17 
s 12
f 127/164/17 134/165/17 135/166/18 129/167/18 
s 2
f 131/168/5 136/169/5 137/170/19 132/171/19 
s 3
f 132/172/19 137/173/19 138/174/20 133/175/20 
s 1
f 133/176/20 138/177/20 139/178/21 134/179/21 
s 3
f 134/180/21 139/181/21 140/182/22 135/183/22 
f 141/184/23 142/185/23 143/186/24 144/187/24 
s 1
f 144/188/24 143/189/24 145/190/25 146/191/25 
s 3
f 146/192/25 145/193/25 147/194/26 148/195/26 
s 12
f 142/196/27 149/197/27 150/198/28 143/199/28 
s 8
f 143/200/28 150/201/28 151/202/29 145/203/29 
s 12
f 145/204/29 151/205/29 152/206/30 147/207/30 
s 3
f 149/208/31 153/209/31 154/210/32 150/211/32 
s 1
f 150/212/32 154/213/32 155/214/33 151/215/33 
s 3
f 151/216/33 155/217/33 156/218/34 152/219/34 
s 4
f 97/220/10 103/221/10 157/222/10 98/223/10 
s 2
f 83/89/8 57/61/8 90/96/8 
f 158/224/10 159/225/10 160/226/10 161/227/10 
f 162/228/10 163/229/10 164/230/10 165/231/10 
f 165/231/10 164/230/10 159/225/10 158/224/10 
s 3
f 166/232/35 167/233/35 168/142/36 169/143/36 
s 1
f 169/144/36 168/145/36 170/146/17 171/147/17 
s 3
f 171/148/17 170/149/17 172/150/18 173/151/18 
s 12
f 167/234/37 174/235/37 175/158/38 168/159/38 
s 8
f 168/160/38 175/161/38 176/162/21 170/163/21 
s 12
f 170/164/21 176/165/21 177/166/22 172/167/22 
f 178/236/39 166/237/39 169/238/40 179/239/40 
s 8
f 179/240/40 169/241/40 171/242/13 180/243/13 
s 12
f 180/244/13 171/245/13 173/246/14 181/247/14 
s 3
f 182/232/37 183/233/37 184/142/38 185/143/38 
s 1
f 185/144/38 184/145/38 186/146/21 187/147/21 
s 3
f 187/148/21 186/149/21 188/150/22 189/151/22 
f 190/248/39 191/249/39 192/174/40 193/175/40 
s 1
f 193/176/40 192/177/40 194/178/13 195/179/13 
s 3
f 195/180/13 194/181/13 196/182/14 197/183/14 
s 12
f 191/236/35 182/237/35 185/238/36 192/239/36 
s 8
f 192/240/36 185/241/36 187/242/17 194/243/17 
s 12
f 194/244/17 187/245/17 189/246/18 196/247/18 
s 3
f 198/184/27 199/185/27 200/186/28 201/187/28 
s 1
f 201/188/28 200/189/28 202/190/29 203/191/29 
s 3
f 203/192/29 202/193/29 204/194/30 205/195/30 
s 12
f 199/196/31 206/197/31 207/198/32 200/199/32 
s 8
f 200/200/32 207/201/32 208/202/33 202/203/33 
s 12
f 202/204/33 208/205/33 209/206/34 204/207/34 
f 210/250/23 198/251/23 201/252/24 211/253/24 
s 8
f 211/254/24 201/255/24 203/256/25 212/257/25 
s 12
f 212/258/25 203/259/25 205/260/26 213/261/26 
s 2
f 214/262/41 215/263/41 216/264/41 217/265/41 
s off
f 218/266/2 215/263/2 214/262/2 219/267/2 
f 217/265/42 216/264/42 220/268/42 221/269/42 
s 2
f 222/270/43 223/271/43 224/272/43 225/273/43 
s off
f 226/274/4 227/275/4 222/270/4 225/273/4 
f 228/276/44 229/277/44 224/272/44 223/271/44 
s 2
f 230/262/41 231/265/41 232/264/41 233/263/41 
s off
f 234/266/45 235/267/45 230/262/45 233/263/45 
f 236/269/46 237/268/46 232/264/46 231/265/46 
s 2
f 238/270/43 239/273/43 240/272/43 241/271/43 
s off
f 242/274/47 239/273/47 238/270/47 243/275/47 
f 241/271/48 240/272/48 244/277/48 245/276/48 
f 246/278/49 247/279/49 248/280/49 249/281/49 
f 249/282/50 250/283/50 251/284/50 246/285/50 
f 251/286/51 250/287/51 252/288/51 253/289/51 
f 254/278/52 255/281/52 248/280/52 247/279/52 
f 254/285/53 256/284/53 257/283/53 255/282/53 
f 253/289/54 252/288/54 257/287/54 256/286/54 
s 1
f 24/24/2 25/25/1 27/27/1 
f 30/30/4 29/29/4 28/28/4 31/31/1 
s 16
f 258/290/10 259/291/10 260/292/10 261/293/10 
s 64
f 262/294/6 263/295/6 264/296/6 265/297/6 
s off
f 263/298/1 266/299/1 267/300/1 261/301/1 
f 268/302/1 269/303/1 258/304/1 261/301/1 
f 269/303/1 270/305/1 258/304/1 
f 270/305/1 271/306/1 272/307/1 273/308/1 
f 274/309/1 263/298/1 262/310/1 275/311/1 
f 276/312/1 277/313/1 278/314/1 279/315/1 
f 267/300/2 266/299/2 272/307/2 271/306/2 
f 273/308/1 278/314/1 277/313/1 
f 273/308/1 277/313/1 258/304/1 270/305/1 
f 263/298/1 274/309/1 276/312/1 
f 276/312/1 279/315/1 266/299/1 263/298/1 
f 267/300/1 268/302/1 261/301/1 
s 16
f 280/316/10 281/317/10 118/318/10 117/319/10 
# 128 polygons - 59 triangles

