# 3ds Max Wavefront OBJ Exporter v0.97b - (c)2007 guruware
# File Created: 14.08.2016 13:24:45

#
# object House_2_LOD_3
#

v  -0.4370 2.7621 -4.2826
v  -3.6739 -0.0528 -4.2826
v  -3.6739 3.8910 -4.2826
v  1.5029 1.2032 -4.2826
v  2.1495 -0.0497 -4.2826
v  -3.6739 3.8910 -2.6566
v  -3.6739 -0.0528 -2.6566
v  2.1495 1.2042 -4.2826
v  -3.3533 3.2590 -4.0608
v  -3.3530 3.2590 -2.5976
v  -1.6191 3.2590 -2.5983
v  -1.6193 3.2590 -4.0613
v  1.2479 -0.0820 -2.5994
v  1.2479 -0.0820 -4.0614
v  -1.4174 -0.0778 4.2287
v  -1.4174 0.0968 4.2287
v  -2.4252 0.0968 4.2287
v  -4.0242 -0.0778 4.2287
v  0.5830 1.1155 4.2287
v  -4.0242 1.2863 2.3760
v  -4.0242 1.2863 -0.6465
v  -4.0242 -0.0778 -2.7408
v  4.0685 1.1629 0.3014
v  4.0685 2.1998 0.3014
v  3.9899 3.8339 4.2283
v  4.0098 -0.0778 4.2287
v  -3.0730 3.3080 -2.6987
v  -1.7379 3.3080 -2.6973
v  3.9987 -0.0778 -2.7252
v  0.5830 1.9178 4.2287
v  -1.4174 2.0270 4.2287
v  2.1823 1.9178 4.2287
v  0.9595 1.9178 4.2287
v  0.9595 1.1155 4.2287
v  2.1823 1.1155 4.2287
v  -4.0242 1.2863 -0.9848
v  -4.0242 2.0886 -0.9848
v  -4.0304 3.9080 -2.7324
v  -3.0732 3.9065 -2.7084
v  -4.0099 3.9148 4.2423
v  2.5479 1.9178 4.2287
v  2.5479 1.1155 4.2287
v  2.1754 1.9225 4.1559
v  2.2054 1.8820 4.1559
v  2.5225 1.8820 4.1559
v  2.5514 1.9225 4.1559
v  2.5225 1.1348 4.1544
v  2.5514 1.1073 4.1559
v  2.1754 1.1073 4.1559
v  2.2057 1.1348 4.1559
v  4.0685 2.1998 -0.5452
v  3.9934 3.8931 -2.7233
v  4.0685 1.1629 -0.5452
v  -1.7358 3.9110 -2.6963
v  -4.0242 2.0886 2.7421
v  -4.0242 1.2863 2.7421
v  -4.0242 2.0886 -0.6465
v  -4.0242 2.0886 2.3760
v  -2.4252 2.0270 4.2287
v  2.1823 1.1155 3.9162
v  2.5479 1.1155 3.9162
v  3.5599 -0.0778 3.9162
v  -0.0072 4.9892 0.7440
v  -1.2475 4.7962 0.7440
v  -0.3905 4.7962 1.9235
v  0.9961 4.7962 1.4730
v  -2.0140 4.1335 0.7440
v  -0.3905 4.7962 -0.4356
v  -0.6273 4.1335 -1.1645
v  -0.6273 4.1335 2.6525
v  1.6162 4.1335 1.9235
v  1.6162 4.1335 -0.4356
v  0.9961 4.7962 0.0150
v  -0.6593 3.2046 -1.2628
v  -2.1172 3.2046 0.7440
v  -0.6593 3.2046 2.7507
v  1.6998 3.2046 1.9842
v  1.6998 3.2046 -0.4963
# 78 vertices

vn 0.0000 0.0000 -1.0000
vn -1.0000 0.0000 -0.0000
vn 0.0000 1.0000 -0.0000
vn 0.4176 0.9087 -0.0001
vn 0.4176 0.9086 -0.0000
vn 0.7589 0.6512 -0.0000
vn 0.0000 0.0000 1.0000
vn 0.0019 -0.0014 1.0000
vn -1.0000 0.0019 0.0017
vn -1.0000 -0.0007 0.0008
vn 0.9995 -0.0308 0.0065
vn 0.9996 0.0266 0.0088
vn 0.9998 0.0149 0.0130
vn 0.9999 -0.0061 0.0130
vn 0.0078 0.0100 -0.9999
vn 0.0202 0.0021 -0.9998
vn -0.0012 0.0071 -1.0000
vn -0.0024 0.0042 -1.0000
vn -0.0000 -0.0045 1.0000
vn -0.0002 -0.0052 1.0000
vn 0.0000 0.0002 1.0000
vn 0.0008 -0.0017 1.0000
vn -1.0000 -0.0022 0.0007
vn -1.0000 -0.0007 0.0016
vn 0.0325 -0.0044 -0.9995
vn 0.0250 -0.0162 -0.9996
vn 0.0007 -0.0008 1.0000
vn 0.0024 -0.0045 1.0000
vn 0.0002 0.0001 1.0000
vn 0.0001 0.0000 1.0000
vn 0.0001 0.0001 1.0000
vn -0.0000 0.0000 1.0000
vn -0.0004 -0.0018 1.0000
vn 0.0028 -0.0020 1.0000
vn -0.0498 -0.0000 0.9988
vn -0.0506 0.0000 0.9987
vn -0.0001 0.0000 1.0000
vn -0.0021 0.0001 1.0000
vn -0.0022 0.0001 1.0000
vn 0.0043 0.0517 0.9987
vn 0.0048 0.0580 0.9983
vn 0.0002 -0.0003 1.0000
vn -0.0000 -0.0023 1.0000
vn 0.9996 0.0233 -0.0163
vn 0.9996 0.0196 -0.0191
vn 0.9996 -0.0167 -0.0224
vn 0.9994 -0.0309 -0.0148
vn -0.0047 0.0017 -1.0000
vn -0.0046 0.0005 -1.0000
vn -1.0000 0.0041 0.0036
vn -1.0000 0.0037 0.0050
vn -1.0000 0.0014 0.0023
vn -1.0000 -0.0023 -0.0000
vn -1.0000 0.0031 0.0013
vn 0.0017 -0.0048 1.0000
vn 0.0000 1.0000 0.0000
vn -0.5014 0.8652 0.0000
vn -0.1549 0.8652 0.4768
vn 0.4056 0.8652 0.2947
vn -0.9090 0.4168 -0.0000
vn -0.1549 0.8652 -0.4768
vn -0.2809 0.4168 -0.8645
vn -0.2809 0.4168 0.8645
vn 0.7354 0.4168 0.5343
vn 0.7354 0.4168 -0.5343
vn 0.4056 0.8652 -0.2947
vn -0.3071 0.1105 -0.9452
vn -0.9939 0.1105 -0.0000
vn -0.3071 0.1105 0.9452
vn 0.8041 0.1105 0.5842
vn 0.8041 0.1105 -0.5842
# 71 vertex normals

vt 0.2076 0.8355 0.0000
vt 0.4064 0.6626 0.0000
vt 0.4064 0.9048 0.0000
vt 0.0884 0.7398 0.0000
vt 0.0487 0.6628 0.0000
vt 0.4053 0.9044 0.0000
vt 0.3054 0.9044 0.0000
vt 0.3054 0.6622 0.0000
vt 0.4053 0.6622 0.0000
vt 0.0487 0.7398 0.0000
vt 0.4500 0.4655 0.0000
vt 0.3741 0.4655 0.0000
vt 0.3741 0.3756 0.0000
vt 0.4500 0.3756 0.0000
vt 0.3584 0.4913 0.0000
vt 0.2825 0.4913 0.0000
vt 0.2825 0.2629 0.0000
vt 0.3584 0.2629 0.0000
vt 0.1630 0.5031 0.0000
vt 0.1630 0.5138 0.0000
vt 0.1011 0.5138 0.0000
vt 0.0029 0.5031 0.0000
vt 0.2859 0.5764 0.0000
vt 0.4593 0.7366 0.0000
vt 0.3454 0.8204 0.0000
vt 0.1597 0.8204 0.0000
vt 0.0310 0.7366 0.0000
vt 0.2580 0.7053 0.0000
vt 0.2580 0.7683 0.0000
vt 0.0194 0.8676 0.0000
vt 0.0193 0.6299 0.0000
vt 0.4978 0.7382 0.0000
vt 0.4393 0.9463 0.0000
vt 0.3572 0.9463 0.0000
vt 0.0039 0.7382 0.0000
vt 0.2859 0.6257 0.0000
vt 0.1630 0.6324 0.0000
vt 0.3842 0.6257 0.0000
vt 0.3090 0.6257 0.0000
vt 0.3090 0.5764 0.0000
vt 0.3842 0.5764 0.0000
vt 0.1389 0.8204 0.0000
vt 0.1389 0.8697 0.0000
vt 0.0315 0.9809 0.0000
vt 0.4981 0.9831 0.0000
vt 0.4393 0.9831 0.0000
vt 0.4952 0.7429 0.0000
vt 0.0039 0.7477 0.0000
vt 0.4952 0.7427 0.0000
vt 0.4066 0.6257 0.0000
vt 0.4066 0.5764 0.0000
vt 0.4688 0.5031 0.0000
vt 0.3409 0.2383 0.0000
vt 0.3462 0.2383 0.0000
vt 0.3462 0.1458 0.0000
vt 0.3409 0.1458 0.0000
vt 0.4844 0.0548 0.0000
vt 0.4958 0.0548 0.0000
vt 0.4958 0.2277 0.0000
vt 0.4844 0.2277 0.0000
vt 0.3825 0.2385 0.0000
vt 0.3897 0.2385 0.0000
vt 0.3897 0.0597 0.0000
vt 0.3825 0.0597 0.0000
vt 0.4515 0.1505 0.0000
vt 0.4430 0.1505 0.0000
vt 0.4430 0.0422 0.0000
vt 0.4515 0.0422 0.0000
vt 0.3095 0.7683 0.0000
vt 0.4419 0.8712 0.0000
vt 0.4420 0.6299 0.0000
vt 0.3095 0.7053 0.0000
vt 0.3754 0.5555 0.0000
vt 0.3753 0.5917 0.0000
vt 0.0604 0.5894 0.0000
vt 0.4594 0.9812 0.0000
vt 0.3679 0.8697 0.0000
vt 0.3679 0.8204 0.0000
vt 0.1597 0.8697 0.0000
vt 0.3454 0.8697 0.0000
vt 0.1011 0.6324 0.0000
vt 0.0303 0.9823 0.0000
vt 0.0917 0.5761 0.0000
vt 0.0692 0.5761 0.0000
vt 0.0071 0.5028 0.0000
vt 0.3743 0.3763 0.0000
vt 0.3871 0.3320 0.0000
vt 0.4204 0.3747 0.0000
vt 0.3900 0.4196 0.0000
vt 0.3972 0.2970 0.0000
vt 0.3361 0.3505 0.0000
vt 0.3060 0.3301 0.0000
vt 0.4568 0.3735 0.0000
vt 0.4024 0.4539 0.0000
vt 0.3092 0.4270 0.0000
vt 0.3380 0.4046 0.0000
vt 0.2774 0.3107 0.0000
vt 0.4067 0.2638 0.0000
vt 0.4913 0.3724 0.0000
vt 0.4142 0.4863 0.0000
vt 0.2820 0.4482 0.0000
# 101 texture coords

g House_2_LOD_3
s 2
f 1/1/1 2/2/1 3/3/1 
f 2/2/1 1/1/1 4/4/1 5/5/1 
s 32
f 6/6/2 3/7/2 2/8/2 7/9/2 
s 2
f 4/4/1 8/10/1 5/5/1 
f 9/11/3 10/12/3 11/13/4 12/14/5 
s 6
f 12/15/5 11/16/4 13/17/6 14/18/6 
s 2
f 15/19/7 16/20/7 17/21/7 18/22/8 
f 15/19/7 19/23/7 16/20/7 
s 4
f 18/24/9 20/25/2 21/26/2 22/27/10 
f 23/28/11 24/29/12 25/30/13 26/31/14 
s 2
f 22/32/15 27/33/16 28/34/17 29/35/18 
f 30/36/19 31/37/20 16/20/7 19/23/7 
f 32/38/21 33/39/22 34/40/7 35/41/7 
s 4
f 22/27/10 36/42/2 37/43/23 38/44/24 
s 2
f 27/33/16 22/32/15 38/45/25 39/46/26 
f 33/39/22 32/38/21 25/47/27 40/48/28 
f 25/49/27 41/50/29 42/51/30 26/52/31 
s off
f 43/53/32 44/54/32 45/55/32 46/56/32 
s 8
f 46/57/33 45/58/34 47/59/35 48/60/36 
f 44/61/37 43/62/37 49/63/38 50/64/39 
s 1
f 48/65/40 47/66/41 50/67/42 49/68/43 
s 4
f 24/29/12 51/69/44 52/70/45 25/30/13 
f 29/71/46 53/72/47 23/28/11 26/31/14 
f 52/70/45 51/69/44 53/72/47 29/71/46 
s 2
f 28/73/17 54/74/48 52/75/49 
s 4
f 40/76/50 55/77/51 56/78/52 18/24/9 
f 21/26/2 36/42/2 22/27/10 
f 38/44/24 37/43/23 57/79/53 
f 18/24/9 56/78/52 20/25/2 
f 58/80/54 55/77/51 40/76/50 
f 20/25/2 58/80/54 57/79/53 21/26/2 
f 58/80/54 40/76/50 38/44/24 57/79/53 
s 2
f 18/22/8 17/21/7 59/81/55 40/48/28 
f 15/19/7 34/40/7 19/23/7 
f 26/52/31 35/41/7 34/40/7 15/19/7 
f 26/52/31 42/51/30 35/41/7 
f 40/48/28 59/81/55 31/37/20 
f 40/48/28 31/37/20 30/36/19 
f 32/38/21 41/50/29 25/47/27 
f 40/48/28 30/36/19 33/39/22 
f 28/34/17 52/82/49 29/35/18 
f 60/83/1 61/84/1 62/85/1 
s 1
f 63/86/56 64/87/57 65/88/58 
f 63/86/56 65/88/58 66/89/59 
f 67/90/60 64/87/57 68/91/61 69/92/62 
f 70/93/63 65/88/58 64/87/57 67/90/60 
f 71/94/64 66/89/59 65/88/58 70/93/63 
f 72/95/65 73/96/66 66/89/59 71/94/64 
f 67/90/60 69/92/62 74/97/67 75/98/68 
f 70/93/63 67/90/60 75/98/68 76/99/69 
f 71/94/64 70/93/63 76/99/69 77/100/70 
f 72/95/65 71/94/64 77/100/70 78/101/71 
f 69/92/62 68/91/61 73/96/66 72/95/65 
f 74/97/67 69/92/62 72/95/65 78/101/71 
f 73/96/66 68/91/61 63/86/56 
f 68/91/61 64/87/57 63/86/56 
f 66/89/59 73/96/66 63/86/56 
# 36 polygons - 21 triangles

