# 3ds Max Wavefront OBJ Exporter v0.97b - (c)2007 guruware
# File Created: 14.08.2016 13:24:14

#
# object House_2_LOD_2
#

v  3.7135 3.2420 -2.5127
v  -3.7280 3.2420 -2.5127
v  -3.7280 3.2420 4.0263
v  3.7135 3.2420 4.0263
v  -3.3533 3.2590 -4.0608
v  -3.3530 3.2590 -2.5976
v  -1.6191 3.2590 -2.5983
v  -1.6193 3.2590 -4.0613
v  -1.6191 3.0020 -2.5983
v  -1.6193 3.0020 -4.0613
v  -1.3801 3.0020 -2.5984
v  -1.3803 3.0020 -4.0613
v  -1.1411 2.4880 -2.5985
v  -1.1415 2.4880 -4.0613
v  -0.9016 2.4880 -2.6034
v  -0.9032 2.4880 -4.0564
v  -0.6634 1.9740 -2.5986
v  -0.6635 1.9740 -4.0613
v  -0.4244 1.9740 -2.5987
v  -0.4247 1.9740 -4.0613
v  -0.1855 1.4600 -2.5988
v  -0.1858 1.4600 -4.0613
v  0.0534 1.4600 -2.5989
v  0.0532 1.4600 -4.0613
v  0.2923 0.9460 -2.5990
v  0.2921 0.9460 -4.0613
v  0.5312 0.9460 -2.5991
v  0.5311 0.9460 -4.0613
v  0.7701 0.4320 -2.5992
v  0.7700 0.4320 -4.0613
v  1.0090 0.4320 -2.5993
v  1.0090 0.4320 -4.0614
v  1.2479 -0.0820 -2.5994
v  1.2479 -0.0820 -4.0614
v  -1.4174 -0.0778 4.2287
v  -1.4174 0.0968 4.2287
v  -2.4252 0.0968 4.2287
v  -4.0242 -0.0778 4.2287
v  0.5830 1.1155 4.2287
v  -4.0242 1.2863 2.3760
v  -4.0242 1.2863 -0.6465
v  -4.0242 -0.0778 -2.7408
v  4.0685 1.1629 0.3014
v  4.0685 2.1998 0.3014
v  3.9899 3.8339 4.2283
v  4.0098 -0.0778 4.2287
v  -3.0730 3.3080 -2.6987
v  -1.7379 3.3080 -2.6973
v  3.9987 -0.0778 -2.7252
v  0.9595 1.1155 3.9162
v  2.1823 1.1155 3.9162
v  3.5599 -0.0778 3.9162
v  -1.4174 -0.0778 3.9162
v  0.5830 1.1155 3.9162
v  -3.5743 -0.0778 -2.4282
v  -3.5743 1.2863 -0.6465
v  -3.5743 1.2863 2.3760
v  -3.5743 -0.0778 3.9162
v  3.5011 1.1629 0.3014
v  3.5011 1.1629 -0.5452
v  3.5599 -0.0778 -2.4282
v  0.5830 1.9178 4.2287
v  -1.4174 2.0270 4.2287
v  2.1823 1.9178 4.2287
v  0.9595 1.9178 4.2287
v  0.9595 1.1155 4.2287
v  2.1823 1.1155 4.2287
v  -4.0242 1.2863 -0.9848
v  -4.0242 2.0886 -0.9848
v  -4.0304 3.9080 -2.7324
v  2.5479 1.9178 3.9162
v  3.5599 3.8316 3.9162
v  2.5479 1.1155 3.9162
v  -1.4174 2.0270 3.9162
v  0.5830 1.9178 3.9162
v  -2.4252 2.0270 3.9162
v  -2.4252 -0.0778 3.9162
v  -3.5743 3.9147 3.9162
v  -3.5743 2.0886 2.7421
v  -3.5743 1.2863 2.7421
v  3.5011 2.1998 -0.5452
v  3.5095 3.8898 -2.3387
v  3.5011 2.1998 0.3014
v  -3.5743 2.0886 -0.6465
v  -3.5743 3.9147 -2.4282
v  -3.5743 2.0886 2.3760
v  -3.5743 2.0886 -0.9848
v  -3.5743 1.2863 -0.9848
v  0.9595 1.9178 3.9162
v  2.1823 1.9178 3.9162
v  -3.0732 3.9065 -2.7084
v  -1.7379 3.9095 -2.4097
v  -1.7379 3.3080 -2.4033
v  -3.0730 3.3080 -2.4094
v  -3.0730 3.9129 -2.4219
v  -4.0099 3.9148 4.2423
v  2.5479 1.9178 4.2287
v  2.5479 1.1155 4.2287
v  -1.4101 0.0656 4.1832
v  -1.4101 2.0324 4.1832
v  -1.4717 1.9779 4.1832
v  -1.4717 0.0656 4.1832
v  -2.4362 2.0324 4.1832
v  -2.3653 1.9779 4.1832
v  -2.4362 0.0731 4.1832
v  -2.3653 0.0731 4.1832
v  -1.7073 0.0694 3.2383
v  -1.4761 0.0694 4.1014
v  -1.4761 1.9779 4.1014
v  -1.7073 1.9779 3.2383
v  4.0685 2.1998 -0.5452
v  3.9934 3.8931 -2.7233
v  4.0685 1.1629 -0.5452
v  -1.7358 3.9110 -2.6963
v  -4.0242 2.0886 2.7421
v  -4.0242 1.2863 2.7421
v  -4.0242 2.0886 -0.6465
v  -4.0242 2.0886 2.3760
v  -2.4252 2.0270 4.2287
v  -0.0072 4.9892 0.7440
v  -0.6172 4.9510 0.7400
v  -0.1857 4.9510 1.3274
v  0.4922 4.9510 1.0943
v  -2.0140 4.1335 0.7440
v  -1.7217 4.5373 0.7440
v  -0.5370 4.5373 -0.8866
v  -0.6273 4.1335 -1.1645
v  -0.6273 4.1335 2.6525
v  -0.5370 4.5373 2.3745
v  1.6162 4.1335 1.9235
v  1.3798 4.5373 1.7517
v  1.6162 4.1335 -0.4356
v  1.3798 4.5373 -0.2638
v  -2.1045 3.6841 0.7440
v  -0.6553 3.6841 -1.2507
v  -0.6593 3.2046 -1.2628
v  -2.1172 3.2046 0.7440
v  -0.6553 3.6841 2.7386
v  -0.6593 3.2046 2.7507
v  1.6895 3.6841 1.9767
v  1.6998 3.2046 1.9842
v  1.6895 3.6841 -0.4888
v  1.6998 3.2046 -0.4963
v  0.9961 4.7962 0.0150
v  -0.3905 4.7962 -0.4356
v  -1.2475 4.7962 0.7440
v  -0.3905 4.7962 1.9235
v  0.9961 4.7962 1.4730
v  -0.1837 4.9510 0.1599
v  0.4865 4.9510 0.3857
v  -3.0732 3.3016 -2.8486
v  -4.0942 3.3013 -2.8616
v  -4.0819 3.9080 -2.8677
v  -3.0732 3.9065 -2.8843
v  -1.7358 3.3094 -2.8473
v  -1.7358 3.9110 -2.8722
v  4.0396 3.8931 -2.7601
v  4.0707 3.3113 -2.7944
v  -4.0917 3.9148 4.3257
v  -4.1742 3.9531 2.5588
v  -4.1742 3.3077 0.8714
v  -4.1095 3.3082 4.3614
v  -1.8775 3.9119 4.3787
v  -1.8919 3.3085 4.3787
v  1.5675 3.3085 4.3787
v  0.7706 3.8083 4.3787
v  2.3644 3.8874 4.3787
v  4.1078 3.3103 4.3692
v  4.0822 3.8339 4.3883
v  4.1820 3.3098 0.3234
v  4.1597 3.9747 0.5954
v  -4.1742 3.8267 -0.8159
v  -2.7949 3.8910 -4.2826
v  -3.6739 -0.0528 -4.2826
v  -3.6739 3.8910 -4.2826
v  -3.3133 3.8910 -3.9949
v  -3.3133 -0.0528 -3.9949
v  -2.7949 3.8910 -3.9949
v  -0.4370 2.7621 -4.2826
v  1.5029 1.2032 -4.2826
v  2.1495 -0.0497 -4.2826
v  1.5029 1.2022 -3.9949
v  2.1495 -0.0497 -3.9949
v  2.1495 1.2033 -3.9949
v  -0.4370 2.7606 -3.9949
v  2.1495 1.2042 -4.2826
v  -3.3133 3.8910 -2.6566
v  -3.3133 -0.0528 -2.6566
v  -3.6739 3.8910 -2.6566
v  -3.6739 -0.0528 -2.6566
# 190 vertices

vn 0.0000 1.0000 -0.0000
vn 1.0000 0.0000 -0.0001
vn 0.9069 0.4214 -0.0002
vn 0.9068 0.4216 -0.0001
vn 0.9065 0.4221 -0.0003
vn 0.9073 0.4204 -0.0010
vn 0.9071 0.4209 -0.0008
vn 0.9063 0.4226 -0.0001
vn 0.9068 0.4215 -0.0002
vn 0.9068 0.4215 -0.0001
vn 0.9068 0.4215 -0.0000
vn 0.0000 0.0000 1.0000
vn 0.0019 -0.0014 1.0000
vn -1.0000 0.0019 0.0017
vn -1.0000 0.0000 -0.0000
vn -1.0000 -0.0007 0.0008
vn 0.9995 -0.0308 0.0065
vn 0.9996 0.0266 0.0088
vn 0.9998 0.0149 0.0130
vn 0.9999 -0.0061 0.0130
vn 0.0078 0.0100 -0.9999
vn 0.0202 0.0021 -0.9998
vn -0.0012 0.0071 -1.0000
vn -0.0024 0.0042 -1.0000
vn 0.0000 0.0000 -1.0000
vn 1.0000 0.0000 -0.0000
vn -0.9999 -0.0100 0.0128
vn -0.9996 -0.0282 0.0066
vn -0.9996 -0.0257 -0.0143
vn -0.9996 -0.0231 -0.0130
vn -0.0000 -0.0045 1.0000
vn -0.0002 -0.0052 1.0000
vn 0.0000 0.0002 1.0000
vn 0.0008 -0.0017 1.0000
vn -1.0000 -0.0022 0.0007
vn -1.0000 -0.0007 0.0016
vn -0.9999 -0.0017 -0.0102
vn -1.0000 0.0004 -0.0057
vn -0.9999 0.0087 0.0106
vn -0.9999 0.0049 0.0140
vn 0.0325 -0.0044 -0.9995
vn 0.0250 -0.0162 -0.9996
vn -0.0101 -0.0203 0.9997
vn -0.0135 0.0106 0.9999
vn -0.0066 -0.0034 1.0000
vn -0.0062 -0.0171 0.9998
vn -0.0236 0.0116 0.9997
vn -0.0045 -0.0061 1.0000
vn -0.0219 0.0012 0.9998
vn -0.0126 0.0207 0.9997
vn 0.0007 -0.0008 1.0000
vn 0.0024 -0.0045 1.0000
vn 0.0002 0.0001 1.0000
vn 0.0001 0.0000 1.0000
vn 0.0001 0.0001 1.0000
vn -0.0000 0.0000 1.0000
vn -0.9659 0.0000 0.2588
vn 0.9996 0.0233 -0.0163
vn 0.9996 0.0196 -0.0191
vn 0.9996 -0.0167 -0.0224
vn 0.9994 -0.0309 -0.0148
vn -0.0047 0.0017 -1.0000
vn -0.0046 0.0005 -1.0000
vn -1.0000 0.0041 0.0036
vn -1.0000 0.0037 0.0050
vn -1.0000 0.0014 0.0023
vn -1.0000 -0.0023 -0.0000
vn -1.0000 0.0031 0.0013
vn 0.0017 -0.0048 1.0000
vn -0.0004 1.0000 0.0002
vn -0.1857 0.9826 -0.0029
vn -0.0538 0.9827 0.1770
vn 0.1525 0.9827 0.1046
vn -0.9273 0.3744 -0.0000
vn -0.7039 0.7103 -0.0000
vn -0.2175 0.7103 -0.6695
vn -0.2865 0.3744 -0.8819
vn -0.2865 0.3744 0.8819
vn -0.2175 0.7103 0.6695
vn 0.7502 0.3744 0.5450
vn 0.5695 0.7103 0.4137
vn 0.7502 0.3744 -0.5450
vn 0.5695 0.7103 -0.4137
vn -0.9940 0.1090 -0.0000
vn -0.3072 0.1090 -0.9454
vn -0.3089 0.0265 -0.9507
vn -0.9996 0.0265 -0.0000
vn -0.3072 0.1090 0.9454
vn -0.3089 0.0265 0.9507
vn 0.8042 0.1090 0.5843
vn 0.8087 0.0265 0.5876
vn 0.8042 0.1090 -0.5843
vn 0.8087 0.0265 -0.5876
vn 0.3277 0.9143 -0.2380
vn -0.1254 0.9145 -0.3847
vn -0.4043 0.9146 -0.0001
vn -0.1253 0.9144 0.3848
vn 0.3276 0.9143 0.2381
vn -0.0541 0.9826 -0.1775
vn 0.1499 0.9828 -0.1083
vn -0.0065 -0.0423 -0.9991
vn 0.0127 -0.0103 -0.9999
vn 0.0028 -0.0269 -0.9996
vn -0.0166 -0.0590 -0.9981
vn 0.0186 -0.0349 -0.9992
vn 0.0193 -0.0414 -0.9990
vn 0.0097 0.0530 -0.9985
vn 0.0091 0.0594 -0.9982
vn -0.9997 0.0132 0.0216
vn -0.9940 -0.1025 0.0392
vn -0.9999 -0.0120 0.0017
vn -0.9994 0.0305 0.0185
vn -0.0053 0.0052 1.0000
vn -0.0238 0.0594 0.9979
vn -0.0211 0.0493 0.9986
vn -0.0040 0.0001 1.0000
vn -0.0005 -0.0014 1.0000
vn -0.0043 0.0060 1.0000
vn 0.0038 -0.0363 0.9993
vn 0.0025 -0.0300 0.9995
vn 0.9987 0.0457 0.0218
vn 0.9991 0.0404 -0.0160
vn 0.9994 0.0354 -0.0023
vn 0.9986 0.0481 0.0222
vn 0.9978 0.0555 -0.0356
vn 0.9979 0.0546 -0.0357
vn -0.9992 0.0058 -0.0406
vn -0.9983 -0.0539 -0.0211
vn -0.9988 0.0198 -0.0442
vn 1.0000 0.0000 0.0000
vn -0.0016 1.0000 0.0033
vn 0.3314 0.9435 0.0032
vn 0.3310 0.9436 0.0032
vn 0.5327 0.8463 0.0042
vn 0.5330 0.8461 0.0043
vn 0.4318 0.9020 -0.0000
vn 0.4319 0.9019 0.0003
vn 1.0000 -0.0000 -0.0000
# 138 vertex normals

vt 0.0456 0.2545 0.0000
vt 0.2461 0.2545 0.0000
vt 0.2461 0.4307 0.0000
vt 0.0456 0.4307 0.0000
vt 0.4837 0.4245 0.0000
vt 0.3841 0.4245 0.0000
vt 0.3841 0.3064 0.0000
vt 0.4838 0.3064 0.0000
vt 0.3841 0.2889 0.0000
vt 0.4838 0.2889 0.0000
vt 0.2724 0.3387 0.0000
vt 0.2724 0.3224 0.0000
vt 0.3720 0.3225 0.0000
vt 0.3720 0.3387 0.0000
vt 0.2724 0.3049 0.0000
vt 0.3720 0.3049 0.0000
vt 0.2718 0.4227 0.0000
vt 0.2722 0.4064 0.0000
vt 0.3711 0.4065 0.0000
vt 0.3715 0.4227 0.0000
vt 0.2719 0.3889 0.0000
vt 0.3715 0.3890 0.0000
vt 0.3906 0.3038 0.0000
vt 0.3906 0.2875 0.0000
vt 0.4902 0.2875 0.0000
vt 0.4902 0.3038 0.0000
vt 0.3906 0.2700 0.0000
vt 0.4902 0.2700 0.0000
vt 0.2724 0.3736 0.0000
vt 0.2724 0.3573 0.0000
vt 0.3720 0.3573 0.0000
vt 0.3720 0.3736 0.0000
vt 0.2724 0.3398 0.0000
vt 0.3720 0.3398 0.0000
vt 0.3933 0.3932 0.0000
vt 0.3934 0.3769 0.0000
vt 0.4929 0.3769 0.0000
vt 0.4929 0.3932 0.0000
vt 0.3934 0.3594 0.0000
vt 0.4929 0.3594 0.0000
vt 0.2715 0.4608 0.0000
vt 0.2715 0.4445 0.0000
vt 0.3711 0.4445 0.0000
vt 0.3711 0.4608 0.0000
vt 0.2715 0.4177 0.0000
vt 0.3711 0.4177 0.0000
vt 0.1630 0.5031 0.0000
vt 0.1630 0.5138 0.0000
vt 0.1011 0.5138 0.0000
vt 0.0029 0.5031 0.0000
vt 0.2859 0.5764 0.0000
vt 0.4593 0.7366 0.0000
vt 0.3454 0.8204 0.0000
vt 0.1597 0.8204 0.0000
vt 0.0310 0.7366 0.0000
vt 0.2804 0.5967 0.0000
vt 0.2995 0.6595 0.0000
vt 0.0589 0.7599 0.0000
vt 0.0390 0.5205 0.0000
vt 0.4978 0.7382 0.0000
vt 0.4393 0.9463 0.0000
vt 0.3572 0.9463 0.0000
vt 0.0039 0.7382 0.0000
vt 0.1668 0.5761 0.0000
vt 0.0917 0.5761 0.0000
vt 0.0071 0.5028 0.0000
vt 0.3127 0.5028 0.0000
vt 0.1899 0.5761 0.0000
vt 0.3979 0.6470 0.0000
vt 0.2884 0.7308 0.0000
vt 0.1028 0.7308 0.0000
vt 0.0082 0.6470 0.0000
vt 0.3949 0.6456 0.0000
vt 0.1728 0.7219 0.0000
vt 0.1208 0.7219 0.0000
vt 0.0052 0.6456 0.0000
vt 0.2859 0.6257 0.0000
vt 0.1630 0.6324 0.0000
vt 0.3842 0.6257 0.0000
vt 0.3090 0.6257 0.0000
vt 0.3090 0.5764 0.0000
vt 0.3842 0.5764 0.0000
vt 0.1389 0.8204 0.0000
vt 0.1389 0.8697 0.0000
vt 0.0315 0.9809 0.0000
vt 0.0692 0.6254 0.0000
vt 0.0071 0.7429 0.0000
vt 0.0692 0.5761 0.0000
vt 0.3127 0.6321 0.0000
vt 0.1899 0.6254 0.0000
vt 0.3746 0.6321 0.0000
vt 0.3746 0.5028 0.0000
vt 0.4452 0.5028 0.0000
vt 0.4452 0.7480 0.0000
vt 0.0803 0.7801 0.0000
vt 0.0082 0.8922 0.0000
vt 0.0803 0.7308 0.0000
vt 0.1208 0.7856 0.0000
vt 0.0107 0.8894 0.0000
vt 0.1728 0.7856 0.0000
vt 0.3949 0.8858 0.0000
vt 0.2884 0.7801 0.0000
vt 0.3979 0.8922 0.0000
vt 0.1028 0.7801 0.0000
vt 0.3092 0.7801 0.0000
vt 0.3092 0.7308 0.0000
vt 0.1668 0.6254 0.0000
vt 0.0917 0.6254 0.0000
vt 0.4981 0.9831 0.0000
vt 0.4393 0.9831 0.0000
vt 0.4420 0.7463 0.0000
vt 0.1197 0.7475 0.0000
vt 0.1197 0.7106 0.0000
vt 0.4451 0.5026 0.0000
vt 0.0069 0.7478 0.0000
vt 0.0069 0.5026 0.0000
vt 0.0377 0.7106 0.0000
vt 0.0377 0.7477 0.0000
vt 0.4952 0.7429 0.0000
vt 0.0039 0.7477 0.0000
vt 0.4952 0.7427 0.0000
vt 0.4066 0.6257 0.0000
vt 0.4066 0.5764 0.0000
vt 0.4688 0.5031 0.0000
vt 0.4939 0.2440 0.0000
vt 0.4939 0.0541 0.0000
vt 0.4879 0.0541 0.0000
vt 0.4879 0.2440 0.0000
vt 0.3409 0.2383 0.0000
vt 0.3462 0.2383 0.0000
vt 0.3462 0.1458 0.0000
vt 0.3409 0.1458 0.0000
vt 0.3897 0.0486 0.0000
vt 0.3825 0.0486 0.0000
vt 0.3825 0.2385 0.0000
vt 0.3897 0.2385 0.0000
vt 0.3562 0.0032 0.0000
vt 0.4558 0.0032 0.0000
vt 0.4558 0.2192 0.0000
vt 0.3562 0.2192 0.0000
vt 0.3579 0.6592 0.0000
vt 0.5391 0.7608 0.0000
vt 0.4481 0.5205 0.0000
vt 0.3324 0.5967 0.0000
vt 0.4426 0.7636 0.0000
vt 0.3324 0.6605 0.0000
vt 0.3754 0.5555 0.0000
vt 0.3753 0.5917 0.0000
vt 0.0604 0.5894 0.0000
vt 0.4594 0.9812 0.0000
vt 0.3679 0.8697 0.0000
vt 0.3679 0.8204 0.0000
vt 0.1597 0.8697 0.0000
vt 0.3454 0.8697 0.0000
vt 0.1011 0.6324 0.0000
vt 0.0303 0.9823 0.0000
vt 0.3743 0.3763 0.0000
vt 0.3806 0.3541 0.0000
vt 0.3974 0.3759 0.0000
vt 0.3818 0.3981 0.0000
vt 0.3972 0.2970 0.0000
vt 0.3921 0.3145 0.0000
vt 0.3211 0.3403 0.0000
vt 0.3060 0.3301 0.0000
vt 0.4568 0.3735 0.0000
vt 0.4386 0.3741 0.0000
vt 0.4024 0.4539 0.0000
vt 0.3962 0.4367 0.0000
vt 0.3092 0.4270 0.0000
vt 0.3236 0.4158 0.0000
vt 0.4020 0.2804 0.0000
vt 0.2917 0.3204 0.0000
vt 0.2774 0.3107 0.0000
vt 0.4067 0.2638 0.0000
vt 0.4740 0.3729 0.0000
vt 0.4913 0.3724 0.0000
vt 0.4083 0.4701 0.0000
vt 0.4142 0.4863 0.0000
vt 0.2956 0.4376 0.0000
vt 0.2820 0.4482 0.0000
vt 0.3380 0.4046 0.0000
vt 0.3361 0.3505 0.0000
vt 0.3871 0.3320 0.0000
vt 0.4204 0.3747 0.0000
vt 0.3900 0.4196 0.0000
vt 0.3550 0.3638 0.0000
vt 0.3562 0.3905 0.0000
vt 0.3964 0.5546 0.0000
vt 0.4578 0.5554 0.0000
vt 0.4564 0.5921 0.0000
vt 0.3960 0.5912 0.0000
vt 0.0287 0.5901 0.0000
vt 0.0268 0.5549 0.0000
vt 0.4928 0.7746 0.0000
vt 0.3871 0.7756 0.0000
vt 0.2857 0.7370 0.0000
vt 0.4950 0.7372 0.0000
vt 0.1386 0.9368 0.0000
vt 0.0061 0.9379 0.0000
vt 0.0049 0.9008 0.0000
vt 0.1380 0.9015 0.0000
vt 0.3454 0.9028 0.0000
vt 0.2976 0.9349 0.0000
vt 0.3933 0.9362 0.0000
vt 0.4977 0.9028 0.0000
vt 0.4965 0.9346 0.0000
vt 0.0541 0.8437 0.0000
vt 0.2969 0.8434 0.0000
vt 0.2806 0.8833 0.0000
vt 0.0530 0.8759 0.0000
vt 0.4841 0.8438 0.0000
vt 0.4820 0.8794 0.0000
vt 0.0617 0.7366 0.0000
vt 0.1844 0.7685 0.0000
vt 0.0614 0.7742 0.0000
vt 0.3524 0.9048 0.0000
vt 0.4064 0.6626 0.0000
vt 0.4064 0.9048 0.0000
vt 0.0497 0.9044 0.0000
vt 0.0497 0.6622 0.0000
vt 0.0815 0.9044 0.0000
vt 0.0994 0.9435 0.0000
vt 0.1170 0.9440 0.0000
vt 0.1162 0.9976 0.0000
vt 0.0984 0.9756 0.0000
vt 0.2076 0.8355 0.0000
vt 0.0884 0.7398 0.0000
vt 0.0487 0.6628 0.0000
vt 0.3455 0.7393 0.0000
vt 0.3852 0.6624 0.0000
vt 0.3852 0.7394 0.0000
vt 0.2264 0.8350 0.0000
vt 0.1195 0.5012 0.0000
vt 0.1195 0.5780 0.0000
vt 0.1019 0.5780 0.0000
vt 0.1018 0.5012 0.0000
vt 0.1195 0.6177 0.0000
vt 0.1019 0.6177 0.0000
vt 0.1196 0.7745 0.0000
vt 0.1019 0.7744 0.0000
vt 0.0495 0.9055 0.0000
vt 0.0495 0.6633 0.0000
vt 0.1317 0.6633 0.0000
vt 0.1317 0.9055 0.0000
vt 0.0168 0.9976 0.0000
vt 0.0161 0.9756 0.0000
vt 0.0985 0.9756 0.0000
vt 0.4053 0.9044 0.0000
vt 0.3054 0.9044 0.0000
vt 0.3054 0.6622 0.0000
vt 0.4053 0.6622 0.0000
vt 0.0487 0.7398 0.0000
# 252 texture coords

g House_2_LOD_2
s 4
f 1/1/1 2/2/1 3/3/1 4/4/1 
s 1
f 5/5/1 6/6/1 7/7/1 8/8/1 
s 2
f 7/7/2 9/9/2 10/10/2 8/8/2 
s 1
f 9/11/1 11/12/1 12/13/1 10/14/1 
s 2
f 12/13/3 11/12/4 13/15/4 14/16/3 
s 1
f 13/17/1 15/18/1 16/19/1 14/20/1 
s 2
f 16/19/5 15/18/6 17/21/7 18/22/8 
s 1
f 17/23/1 19/24/1 20/25/1 18/26/1 
s 2
f 20/25/9 19/24/10 21/27/10 22/28/9 
s 1
f 21/29/1 23/30/1 24/31/1 22/32/1 
s 2
f 24/31/10 23/30/10 25/33/10 26/34/10 
s 1
f 25/35/1 27/36/1 28/37/1 26/38/1 
s 2
f 28/37/10 27/36/10 29/39/10 30/40/11 
s 1
f 29/41/1 31/42/1 32/43/1 30/44/1 
s 2
f 32/43/11 31/42/11 33/45/11 34/46/11 
f 35/47/12 36/48/12 37/49/12 38/50/13 
f 35/47/12 39/51/12 36/48/12 
s 4
f 38/52/14 40/53/15 41/54/15 42/55/16 
f 43/56/17 44/57/18 45/58/19 46/59/20 
s 2
f 42/60/21 47/61/22 48/62/23 49/63/24 
f 50/64/25 51/65/25 52/66/25 53/67/25 
f 53/67/25 54/68/25 50/64/25 
s 4
f 55/69/26 56/70/26 57/71/26 58/72/26 
f 52/73/27 59/74/28 60/75/29 61/76/30 
s 2
f 62/77/31 63/78/32 36/48/12 39/51/12 
f 64/79/33 65/80/34 66/81/12 67/82/12 
s 4
f 42/55/16 68/83/15 69/84/35 70/85/36 
s 2
f 71/86/25 72/87/25 52/66/25 73/88/25 
f 74/89/25 75/90/25 54/68/25 53/67/25 
f 76/91/25 77/92/25 58/93/25 78/94/25 
s 4
f 79/95/26 78/96/26 58/72/26 80/97/26 
f 81/98/37 82/99/38 61/76/30 60/75/29 
f 83/100/39 59/74/28 52/73/27 72/101/40 
s 2
f 75/90/25 74/89/25 78/94/25 72/87/25 
s 4
f 84/102/26 85/103/26 78/96/26 86/104/26 
f 82/99/38 81/98/37 83/100/39 72/101/40 
f 87/105/26 88/106/26 55/69/26 85/103/26 
f 56/70/26 84/102/26 86/104/26 57/71/26 
s 2
f 89/107/25 90/108/25 51/65/25 50/64/25 
f 47/61/22 42/60/21 70/109/41 91/110/42 
f 82/111/43 92/112/44 93/113/45 61/114/46 
f 85/115/47 55/116/48 94/117/49 95/118/50 
f 55/116/48 61/114/46 93/113/45 94/117/49 
f 65/80/34 64/79/33 45/119/51 96/120/52 
f 45/121/51 97/122/53 98/123/54 46/124/55 
s 8
f 99/125/12 100/126/12 101/127/12 102/128/12 
s off
f 103/129/56 104/130/56 101/131/56 100/132/56 
s 8
f 105/133/56 106/134/12 104/135/56 103/136/56 
s off
f 107/137/57 108/138/57 109/139/57 110/140/57 
s 4
f 44/57/18 111/141/58 112/142/59 45/58/19 
f 49/143/60 113/144/61 43/56/17 46/59/20 
f 112/145/59 111/146/58 113/144/61 49/143/60 
s 2
f 48/147/23 114/148/62 112/149/63 
s 4
f 96/150/64 115/151/65 116/152/66 38/52/14 
f 41/54/15 68/83/15 42/55/16 
f 70/85/36 69/84/35 117/153/67 
f 38/52/14 116/152/66 40/53/15 
f 118/154/68 115/151/65 96/150/64 
f 40/53/15 118/154/68 117/153/67 41/54/15 
f 118/154/68 96/150/64 70/85/36 117/153/67 
s 2
f 38/50/13 37/49/12 119/155/69 96/120/52 
f 35/47/12 66/81/12 39/51/12 
f 46/124/55 67/82/12 66/81/12 35/47/12 
f 46/124/55 98/123/54 67/82/12 
f 96/120/52 119/155/69 63/78/32 
f 96/120/52 63/78/32 62/77/31 
f 64/79/33 97/122/53 45/119/51 
f 96/120/52 62/77/31 65/80/34 
f 48/62/23 112/156/63 49/63/24 
s 4
f 84/102/26 87/105/26 85/103/26 
f 78/96/26 79/95/26 86/104/26 
f 57/71/26 80/97/26 58/72/26 
f 55/69/26 88/106/26 56/70/26 
s 2
f 74/89/25 76/91/25 78/94/25 
f 72/87/25 71/86/25 90/108/25 
f 72/87/25 90/108/25 89/107/25 
f 72/87/25 89/107/25 75/90/25 
f 51/65/25 73/88/25 52/66/25 
s 1
f 120/157/70 121/158/71 122/159/72 
f 120/157/70 122/159/72 123/160/73 
f 124/161/74 125/162/75 126/163/76 127/164/77 
f 128/165/78 129/166/79 125/162/75 124/161/74 
f 130/167/80 131/168/81 129/166/79 128/165/78 
f 132/169/82 133/170/83 131/168/81 130/167/80 
f 134/171/84 135/172/85 136/173/86 137/174/87 
f 138/175/88 134/171/84 137/174/87 139/176/89 
f 140/177/90 138/175/88 139/176/89 141/178/91 
f 142/179/92 140/177/90 141/178/91 143/180/93 
f 144/181/94 133/170/83 126/163/76 145/182/95 
f 132/169/82 142/179/92 135/172/85 127/164/77 
f 125/162/75 146/183/96 145/182/95 126/163/76 
f 129/166/79 147/184/97 146/183/96 125/162/75 
f 131/168/81 148/185/98 147/184/97 129/166/79 
f 133/170/83 144/181/94 148/185/98 131/168/81 
f 132/169/82 127/164/77 126/163/76 133/170/83 
f 124/161/74 127/164/77 135/172/85 134/171/84 
f 128/165/78 124/161/74 134/171/84 138/175/88 
f 130/167/80 128/165/78 138/175/88 140/177/90 
f 132/169/82 130/167/80 140/177/90 142/179/92 
f 143/180/93 136/173/86 135/172/85 142/179/92 
f 147/184/97 122/159/72 121/158/71 146/183/96 
f 148/185/98 123/160/73 122/159/72 147/184/97 
f 144/181/94 145/182/95 149/186/99 150/187/100 
f 150/187/100 149/186/99 120/157/70 
f 146/183/96 121/158/71 149/186/99 145/182/95 
f 149/186/99 121/158/71 120/157/70 
f 144/181/94 150/187/100 123/160/73 148/185/98 
f 123/160/73 150/187/100 120/157/70 
s 2
f 151/188/101 152/189/102 153/190/103 154/191/104 
f 155/147/105 156/148/106 157/192/107 158/193/108 
s 4
f 159/194/109 160/195/110 161/196/111 162/197/112 
s 2
f 163/198/113 159/199/114 162/200/115 164/201/116 
f 164/201/116 165/202/117 166/203/12 163/198/113 
f 167/204/118 166/203/12 165/202/117 
f 165/202/117 168/205/119 169/206/120 167/204/118 
s 4
f 168/207/121 170/208/122 171/209/123 169/210/124 
f 170/208/122 158/211/125 157/212/126 171/209/123 
f 152/213/127 161/196/111 172/214/128 153/215/129 
f 160/195/110 172/214/128 161/196/111 
s 2
f 173/216/25 174/217/25 175/218/25 
s 4
f 176/219/12 177/220/12 178/221/12 
s 64
f 178/222/1 173/223/1 175/224/1 176/225/1 
s 2
f 174/217/25 179/226/25 180/227/25 181/228/25 
f 179/226/25 174/217/25 173/216/25 
s 4
f 182/229/12 183/230/12 184/231/12 
f 177/220/12 183/230/12 182/229/12 185/232/12 
f 178/221/12 177/220/12 185/232/12 
s 8
f 181/233/130 186/234/130 184/235/130 183/236/26 
s 1
f 186/234/131 180/237/132 182/238/133 184/235/131 
f 180/237/132 179/239/134 185/240/135 182/238/133 
f 179/239/134 173/223/136 178/222/137 185/240/135 
s off
f 187/241/138 188/242/138 177/243/138 176/244/138 
s 64
f 189/245/1 187/246/1 176/247/1 175/224/1 
s 32
f 189/248/15 175/249/15 174/250/15 190/251/15 
s 2
f 180/227/25 186/252/25 181/228/25 
# 99 polygons - 36 triangles

