# 3ds Max Wavefront OBJ Exporter v0.97b - (c)2007 guruware
# File Created: 14.08.2016 13:23:02

#
# object House_1_LOD_3
#

v  2.9916 0.6630 0.0001
v  2.9996 -0.0870 0.0019
v  2.2092 -0.0870 -2.2359
v  2.2001 0.6748 -2.2260
v  2.2307 0.6711 2.2609
v  2.2394 -0.0870 2.2690
v  0.9171 3.3880 -0.9498
v  1.3105 3.3879 -0.0001
v  0.9180 3.3888 0.9476
v  -0.0000 1.9250 2.5177
v  0.5698 0.6357 2.7019
v  0.5785 -0.0870 2.7100
v  0.0000 -0.0870 -3.0793
v  0.0000 0.6683 -3.0690
v  -2.9947 0.6630 -0.0023
v  -2.0954 0.6748 -2.1399
v  -2.1045 -0.0870 -2.1499
v  -3.0026 -0.0870 -0.0005
v  -2.1600 0.6711 2.2014
v  -2.1687 -0.0870 2.2095
v  -0.9180 3.3888 0.9476
v  -1.3105 3.3879 -0.0001
v  -0.5698 0.6357 2.7019
v  -0.9171 3.3880 -0.9498
v  0.0000 3.3880 -1.3296
v  -0.5664 -0.0870 2.7100
v  -1.6264 2.7871 -0.6143
v  -1.8405 2.4798 -0.6148
v  0.6796 2.4495 -1.8540
v  0.7763 2.1409 -2.0292
v  1.0375 2.1623 -1.9061
v  -1.7660 2.4235 -0.8895
v  -1.5516 2.7315 -0.8885
v  -0.0000 4.1575 0.0000
v  -0.0000 3.3879 1.3802
v  0.9417 2.4695 -1.7315
# 36 vertices

vn 0.9638 0.2664 -0.0094
vn 0.9999 0.0109 -0.0070
vn 0.7151 0.0170 -0.6988
vn 0.6989 0.2619 -0.6655
vn 0.6551 0.2784 0.7024
vn 0.6842 0.0157 0.7291
vn 0.5166 0.7147 -0.4714
vn 0.7221 0.6917 -0.0092
vn 0.5163 0.7014 0.4913
vn 0.1070 0.5007 0.8590
vn 0.3193 0.2732 0.9074
vn 0.2566 0.0140 0.9664
vn -0.0256 0.0146 -0.9996
vn -0.0344 0.2535 -0.9667
vn -0.9691 0.2466 -0.0053
vn -0.6828 0.2505 -0.6864
vn -0.7133 0.0169 -0.7007
vn -0.9998 0.0109 -0.0164
vn -0.6799 0.2492 0.6897
vn -0.6869 0.0150 0.7266
vn -0.5222 0.7041 0.4812
vn -0.6994 0.7138 0.0364
vn -0.2934 0.1459 0.9448
vn -0.4668 0.7142 -0.5215
vn -0.0287 0.7129 -0.7007
vn -0.2982 0.0093 0.9545
vn -0.7599 0.6117 -0.2200
vn -0.8559 0.4887 -0.1690
vn 0.1286 0.5545 -0.8222
vn 0.2130 0.4909 -0.8448
vn 0.4614 0.5128 -0.7240
vn -0.7566 0.4610 -0.4636
vn -0.5002 0.4123 -0.7615
vn -0.0000 1.0000 -0.0039
vn -0.0000 0.7324 0.6809
vn 0.4823 0.5752 -0.6607
# 36 vertex normals

vt 0.7727 0.1095 0.0000
vt 0.7725 0.0462 0.0000
vt 0.9518 0.0462 0.0000
vt 0.9510 0.1104 0.0000
vt 0.5916 0.1101 0.0000
vt 0.5909 0.0462 0.0000
vt 0.8488 0.3419 0.0000
vt 0.7727 0.3419 0.0000
vt 0.6968 0.3420 0.0000
vt 0.6710 0.3462 0.0000
vt 0.7467 0.2230 0.0000
vt 0.6958 0.1102 0.0000
vt 0.5645 0.1158 0.0000
vt 0.6899 0.0462 0.0000
vt 0.5641 0.0462 0.0000
vt 0.7561 0.0462 0.0000
vt 0.7561 0.1123 0.0000
vt 0.9332 0.1128 0.0000
vt 0.9339 0.0462 0.0000
vt 0.7011 0.1165 0.0000
vt 0.5309 0.1174 0.0000
vt 0.5301 0.0462 0.0000
vt 0.7013 0.0462 0.0000
vt 0.8766 0.1171 0.0000
vt 0.8773 0.0462 0.0000
vt 0.7768 0.3415 0.0000
vt 0.7013 0.3414 0.0000
vt 0.9244 0.1152 0.0000
vt 0.7982 0.1090 0.0000
vt 0.8215 0.3470 0.0000
vt 0.6822 0.3406 0.0000
vt 0.7561 0.3406 0.0000
vt 0.5873 0.1128 0.0000
vt 0.9254 0.0462 0.0000
vt 0.8038 0.0462 0.0000
vt 0.5866 0.0462 0.0000
vt 0.6524 0.2936 0.0000
vt 0.6524 0.2691 0.0000
vt 0.8108 0.2651 0.0000
vt 0.8186 0.2402 0.0000
vt 0.8396 0.2419 0.0000
vt 0.6305 0.2646 0.0000
vt 0.6306 0.2891 0.0000
vt 0.6257 0.3414 0.0000
vt 0.7721 0.4343 0.0000
vt 0.7465 0.4419 0.0000
vt 0.7462 0.3465 0.0000
vt 0.7563 0.4366 0.0000
vt 0.8299 0.3406 0.0000
vt 0.7006 0.4325 0.0000
vt 0.8319 0.2667 0.0000
# 51 texture coords

g House_1_LOD_3
s 1
f 1/1/1 2/2/2 3/3/3 4/4/4 
f 5/5/5 6/6/6 2/2/2 1/1/1 
f 7/7/7 8/8/8 1/1/1 4/4/4 
f 8/8/8 9/9/9 5/5/5 1/1/1 
f 9/10/9 10/11/10 11/12/11 5/13/5 
f 11/12/11 12/14/12 6/15/6 5/13/5 
f 13/16/13 14/17/14 4/18/4 3/19/3 
f 15/20/15 16/21/16 17/22/17 18/23/18 
f 19/24/19 15/20/15 18/23/18 20/25/20 
f 19/24/19 21/26/21 22/27/22 15/20/15 
f 19/28/19 23/29/23 10/11/10 21/30/21 
f 24/31/24 25/32/25 14/17/14 16/33/16 
f 23/29/23 19/28/19 20/34/20 26/35/26 
f 13/16/13 17/36/17 16/33/16 14/17/14 
f 22/27/22 27/37/27 28/38/28 15/20/15 
f 25/32/25 29/39/29 30/40/30 14/17/14 
f 4/18/4 14/17/14 30/40/30 31/41/31 
f 28/38/28 32/42/32 16/21/16 15/20/15 
f 32/42/32 33/43/33 24/44/24 16/21/16 
f 7/7/7 34/45/34 8/8/8 
f 8/8/8 34/45/34 9/9/9 
f 9/10/9 34/46/34 35/47/35 
f 25/32/25 34/48/34 7/49/7 
f 22/27/22 34/50/34 24/44/24 
f 21/26/21 34/50/34 22/27/22 
f 35/47/35 34/46/34 21/30/21 
f 24/31/24 34/48/34 25/32/25 
f 24/44/24 33/43/33 27/37/27 22/27/22 
f 7/49/7 4/18/4 31/41/31 36/51/36 
f 7/49/7 36/51/36 29/39/29 25/32/25 
f 9/10/9 35/47/35 10/11/10 
f 10/11/10 35/47/35 21/30/21 
# 22 polygons - 10 triangles

